<?xml version="1.0" encoding="UTF-8"?>
<svg width="200px" height="68px" viewBox="0 0 200 68" version="1.1" xmlns="http://www.w3.org/2000/svg" xmlns:xlink="http://www.w3.org/1999/xlink">
    <!-- Generator: Sketch 43.2 (39069) - http://www.bohemiancoding.com/sketch -->
    <title>Group 2</title>
    <desc>Created with Sketch.</desc>
    <defs></defs>
    <g id="Symbols" stroke="none" stroke-width="1" fill="none" fill-rule="evenodd">
        <g id="logo-app-store">
            <g id="Group-2">
                <g id="App-Store">
                    <g id="icon" transform="translate(17.603250, 11.916046)"></g>
                    <g transform="translate(62.153013, 29.519296)"></g>
                    <g id="Available-on-the" transform="translate(63.371699, 12.322275)"></g>
                    <rect id="background" fill="#000000" x="0" y="0" width="200" height="67.704807" rx="3"></rect>
                    <path d="M43.7834484,32.3025362 C43.7398721,27.459561 47.7488879,25.1034378 47.9322087,24.9937458 C45.6617354,21.6834528 42.1425769,21.2311613 40.9059127,21.1950982 C37.9502403,20.8840539 35.083223,22.9636932 33.5775881,22.9636932 C32.0419007,22.9636932 29.7233432,21.2251508 27.2244702,21.2762402 C24.0088428,21.325827 21.0005784,23.187585 19.3506911,26.0786444 C15.9457324,31.9734603 18.4851764,40.63612 21.7473853,45.4009584 C23.379241,47.7360448 25.286078,50.3401019 27.7819458,50.2484415 C30.2237189,50.149268 31.135815,48.6917173 34.0824717,48.6917173 C37.002081,48.6917173 37.8585799,50.2484415 40.4040344,50.1883364 C43.0246204,50.149268 44.6745077,47.8457368 46.2492636,45.4896136 C48.1350637,42.8179382 48.892389,40.1808232 48.9224416,40.0455865 C48.8623364,40.0260524 43.8345378,38.1071944 43.7834484,32.3025362" id="Fill-2" fill="#FFFFFF"></path>
                    <path d="M38.9750337,18.0606128 C40.2883319,16.4182387 41.1869044,14.1838285 40.9374679,11.9163604 C39.0366415,12.0005077 36.6594814,13.2311613 35.2905859,14.8374723 C34.0794664,16.2529494 32.9975731,18.5730095 33.2770622,20.7548277 C35.4122989,20.9141065 37.6046355,19.6774423 38.9750337,18.0606128" id="Fill-3" fill="#FFFFFF"></path>
                    <path d="M79.1508413,49.9133551 L75.7383695,49.9133551 L73.8690983,44.039576 L67.3717279,44.039576 L65.5911118,49.9133551 L62.2687977,49.9133551 L68.7075656,29.9163604 L72.6835235,29.9163604 L79.1508413,49.9133551 L79.1508413,49.9133551 Z M73.3056122,41.5752635 L71.6151539,36.3551282 C71.4363409,35.8201921 71.0997519,34.5639938 70.6068894,32.5865332 L70.5467842,32.5865332 C70.3484371,33.4370216 70.0313823,34.6932199 69.5971223,36.3551282 L67.935214,41.5752635 L73.3056122,41.5752635 L73.3056122,41.5752635 Z" id="Fill-4" fill="#FFFFFF"></path>
                    <path d="M95.6767617,42.526428 C95.6767617,44.9787195 95.0110968,46.9171117 93.6782643,48.3401019 C92.4851764,49.6068187 91.002081,50.2394258 89.233486,50.2394258 C87.3236437,50.2394258 85.9502403,49.5587346 85.1162808,48.1928442 L85.1162808,55.7585843 L81.9126745,55.7585843 L81.9126745,40.2334152 C81.9126745,38.6932199 81.8721035,37.1139562 81.7939668,35.4941215 L84.6113973,35.4941215 L84.7902102,37.7811237 L84.8503154,37.7811237 C85.9186851,36.0576076 87.5400224,35.1966008 89.7158301,35.1966008 C91.4168068,35.1966008 92.8367917,35.8682763 93.9727797,37.2131297 C95.1072651,38.5609885 95.6767617,40.3310862 95.6767617,42.526428 L95.6767617,42.526428 Z M92.4130502,42.6436331 C92.4130502,41.2401771 92.097498,40.0831523 91.4633883,39.1725587 C90.770676,38.2243995 89.8405483,37.7480659 88.6745077,37.7480659 C87.8841246,37.7480659 87.1658676,38.0125287 86.5242448,38.5354438 C85.8811193,39.0598615 85.460383,39.7465633 85.2635385,40.5985542 C85.164365,40.9937458 85.1147782,41.3168112 85.1147782,41.5722582 L85.1147782,43.9794708 C85.1147782,45.025301 85.4363409,45.9103499 86.0794664,46.6346174 C86.7225919,47.3558796 87.5580539,47.7180133 88.5858526,47.7180133 C89.7924642,47.7180133 90.7316077,47.2506955 91.4032831,46.323573 C92.0764612,45.3934453 92.4130502,44.1672995 92.4130502,42.6436331 L92.4130502,42.6436331 Z" id="Fill-5" fill="#FFFFFF"></path>
                    <path d="M112.261285,42.526428 C112.261285,44.9787195 111.59562,46.9171117 110.262787,48.3401019 C109.068197,49.6068187 107.586604,50.2394258 105.816506,50.2394258 C103.908167,50.2394258 102.534763,49.5587346 101.699301,48.1928442 L101.699301,55.7585843 L98.4956948,55.7585843 L98.4956948,40.2334152 C98.4956948,38.6932199 98.4551238,37.1139562 98.3769871,35.4941215 L101.194418,35.4941215 L101.373231,37.7811237 L101.433336,37.7811237 C102.500203,36.0576076 104.12154,35.1966008 106.29885,35.1966008 C107.998324,35.1966008 109.419812,35.8682763 110.557303,37.2131297 C111.690285,38.5609885 112.261285,40.3310862 112.261285,42.526428 L112.261285,42.526428 Z M108.99607,42.6436331 C108.99607,41.2401771 108.679016,40.0831523 108.044906,39.1725587 C107.353696,38.2243995 106.425071,37.7480659 105.259031,37.7480659 C104.468647,37.7480659 103.750391,38.0125287 103.105762,38.5354438 C102.46414,39.0598615 102.043403,39.7465633 101.846559,40.5985542 C101.748888,40.9937458 101.696296,41.3168112 101.696296,41.5722582 L101.696296,43.9794708 C101.696296,45.025301 102.019361,45.9103499 102.659481,46.6346174 C103.302607,47.3543769 104.138069,47.7180133 105.168873,47.7180133 C106.376987,47.7180133 107.316131,47.2506955 107.986303,46.323573 C108.659481,45.3934453 108.99607,44.1672995 108.99607,42.6436331 L108.99607,42.6436331 Z" id="Fill-6" fill="#FFFFFF"></path>
                    <path d="M130.803734,44.3055415 C130.803734,46.0065182 130.210195,47.39044 129.026123,48.4588097 C127.724846,49.6248503 125.908167,50.2093732 123.579091,50.2093732 C121.427325,50.2093732 119.702306,49.7946474 118.401029,48.9636932 L119.141826,46.2935204 C120.546784,47.1244746 122.089985,47.540703 123.769925,47.540703 C124.978039,47.540703 125.917182,47.2672244 126.587355,46.7247751 C127.260533,46.1793206 127.598625,45.4535505 127.598625,44.5459622 C127.598625,43.7330396 127.319136,43.0508458 126.766168,42.4963754 C126.211698,41.9449104 125.295094,41.4280058 124.008843,40.9561801 C120.507716,39.650395 118.75565,37.7390501 118.75565,35.228156 C118.75565,33.5872845 119.374733,32.2439337 120.608392,31.1935956 C121.843554,30.1447601 123.48142,29.6203424 125.518986,29.6203424 C127.33867,29.6203424 128.854823,29.9373972 130.05843,30.5700043 L129.254523,33.1815745 C128.12154,32.5685016 126.842802,32.2619652 125.412299,32.2619652 C124.282321,32.2619652 123.394267,32.5399517 122.76166,33.0929194 C122.228227,33.5872845 121.956251,34.189839 121.956251,34.9050907 C121.956251,35.6939712 122.26429,36.3491177 122.878865,36.8615144 C123.410796,37.3363454 124.381495,37.8517473 125.784951,38.404715 C127.506965,39.0989299 128.770676,39.9073446 129.582096,40.8359697 C130.398024,41.7645948 130.803734,42.9231222 130.803734,44.3055415" id="Fill-7" fill="#FFFFFF"></path>
                    <path d="M141.422817,37.8983288 L137.891638,37.8983288 L137.891638,44.8990802 C137.891638,46.6796962 138.513726,47.5677503 139.760909,47.5677503 C140.333411,47.5677503 140.808242,47.5196662 141.183899,47.41899 L141.272554,49.8517473 C140.64145,50.0876602 139.810496,50.2063679 138.782697,50.2063679 C137.51598,50.2063679 136.528753,49.8186895 135.813501,49.0478405 C135.101255,48.2754889 134.745131,46.9817248 134.745131,45.1605377 L134.745131,37.8923183 L132.642953,37.8923183 L132.642953,35.488111 L134.745131,35.488111 L134.745131,32.8479908 L137.891638,31.8983288 L137.891638,35.488111 L141.422817,35.488111 L141.422817,37.8983288" id="Fill-8" fill="#FFFFFF"></path>
                    <path d="M157.323644,42.5850306 C157.323644,44.8014092 156.691037,46.6210937 155.42432,48.0440839 C154.100503,49.5076451 152.339421,50.2394258 150.144079,50.2394258 C148.025372,50.2394258 146.340924,49.5376977 145.084726,48.1342417 C143.828527,46.7307856 143.200428,44.960688 143.200428,42.8254513 C143.200428,40.5910411 143.851067,38.7608382 145.143328,37.337848 C146.438595,35.9148578 148.18465,35.2011087 150.379992,35.2011087 C152.497197,35.2011087 154.195169,35.905842 155.482922,37.3077954 C156.712073,38.6706805 157.323644,40.4272545 157.323644,42.5850306 L157.323644,42.5850306 Z M154.002832,42.6586594 C154.002832,41.337848 153.717333,40.2048653 153.144831,39.256706 C152.473155,38.1117022 151.50997,37.540703 150.265792,37.540703 C148.984049,37.540703 147.996822,38.1117022 147.328152,39.256706 C146.752644,40.2048653 146.468647,41.3573822 146.468647,42.7187646 C146.468647,44.0410787 146.752644,45.1770666 147.328152,46.120718 C148.020864,47.2672244 148.987055,47.8397263 150.240248,47.8397263 C151.463388,47.8397263 152.423569,47.2537007 153.119286,46.0936707 C153.706814,45.122972 154.002832,43.9824761 154.002832,42.6586594 L154.002832,42.6586594 Z" id="Fill-9" fill="#FFFFFF"></path>
                    <path d="M167.741375,38.311552 C167.42432,38.2529494 167.084726,38.2243995 166.731608,38.2243995 C165.604635,38.2243995 164.73311,38.6466384 164.120037,39.500132 C163.586604,40.2514468 163.320638,41.2011087 163.320638,42.3476151 L163.320638,49.9133551 L160.117032,49.9133551 L160.117032,40.0350681 C160.117032,38.3746624 160.085477,36.8585092 160.023869,35.4956241 L162.814252,35.4956241 L162.931457,38.2544521 L163.020113,38.2544521 C163.359707,37.3062928 163.891638,36.5414543 164.621916,35.9704551 C165.337167,35.4535505 166.106514,35.1966008 166.937468,35.1966008 C167.233486,35.1966008 167.500954,35.2191403 167.738369,35.2552034 L167.741375,38.311552" id="Fill-10" fill="#FFFFFF"></path>
                    <path d="M182.068948,42.0215445 C182.068948,42.595549 182.031382,43.0793957 181.951743,43.4745873 L172.342427,43.4745873 C172.376987,44.8990802 172.844305,45.9899893 173.735364,46.7413041 C174.545282,47.4114769 175.594117,47.7480659 176.878865,47.7480659 C178.301856,47.7480659 179.600128,47.5226714 180.767671,47.065872 L181.269549,49.2897639 C179.905161,49.8833025 178.29284,50.1808232 176.43559,50.1808232 C174.199677,50.1808232 172.444605,49.5226714 171.16737,48.2093732 C169.894643,46.8945723 169.254523,45.1259772 169.254523,42.9141065 C169.254523,40.7413041 169.846559,38.9306354 171.036641,37.4866083 C172.280819,35.9449104 173.962261,35.1740614 176.077964,35.1740614 C178.156101,35.1740614 179.729354,35.9449104 180.796221,37.4866083 C181.643704,38.7082462 182.068948,40.2228968 182.068948,42.0215445 L182.068948,42.0215445 Z M179.014102,41.1905903 C179.036641,40.2394258 178.826273,39.4219953 178.392013,38.7277804 C177.837543,37.8352184 176.984049,37.39044 175.840548,37.39044 C174.791713,37.39044 173.939722,37.8247 173.290586,38.6962252 C172.757152,39.3889374 172.440098,40.2228968 172.342427,41.187585 L179.014102,41.1905903 L179.014102,41.1905903 Z" id="Fill-11" fill="#FFFFFF"></path>
                    <path d="M71.7609089,22.7593356 L70.0824717,22.7593356 L69.164365,19.8727841 L65.9712771,19.8727841 L65.095244,22.7593356 L63.4618857,22.7593356 L66.6264236,12.9306354 L68.5798421,12.9306354 L71.7609089,22.7593356 L71.7609089,22.7593356 Z M68.8878811,18.6616647 L68.056927,16.0951733 C67.9697745,15.8322131 67.8089931,15.2206429 67.5610592,14.2439337 L67.5310066,14.2439337 C67.4288278,14.6661726 67.2830727,15.2792455 67.0636888,16.0951733 L66.2477609,18.6616647 L68.8878811,18.6616647 L68.8878811,18.6616647 Z" id="Fill-12" fill="#FFFFFF"></path>
                    <path d="M79.6737564,15.6729344 L76.99006,22.7593356 L75.4588804,22.7593356 L72.8623364,15.6729344 L74.5542974,15.6729344 L75.7654168,19.4204926 C75.9697745,20.0470892 76.1440795,20.6451358 76.2748083,21.2131297 L76.3183845,21.2131297 C76.4355896,20.7037383 76.6098947,20.1056917 76.827776,19.4204926 L78.0238691,15.6729344 L79.6737564,15.6729344" id="Fill-13" fill="#FFFFFF"></path>
                    <path d="M85.3867542,22.7593356 L85.2695491,21.9434077 L85.2259728,21.9434077 C84.7451313,22.6000569 84.0449059,22.920117 83.1553492,22.920117 C81.8871298,22.920117 80.9825468,22.0305603 80.9825468,20.8344671 C80.9825468,19.0854062 82.4987001,18.1808232 85.123794,18.1808232 L85.123794,18.0500944 C85.123794,17.1169615 84.6279262,16.6496436 83.651217,16.6496436 C82.9509916,16.6496436 82.3379187,16.8254513 81.7999773,17.175564 L81.4799172,16.1402522 C82.1365663,15.731537 82.9524942,15.5271793 83.9156798,15.5271793 C85.7669195,15.5271793 86.7015551,16.5038886 86.7015551,18.4588097 L86.7015551,21.0688773 C86.7015551,21.784129 86.7316077,22.3385993 86.8037339,22.7608382 L85.3867542,22.7593356 L85.3867542,22.7593356 Z M85.1673703,19.2296587 C83.4168068,19.2296587 82.5422763,19.6534002 82.5422763,20.6586594 C82.5422763,21.4024611 82.9945678,21.7660974 83.6211644,21.7660974 C84.4235686,21.7660974 85.1673703,21.1545272 85.1673703,20.323573 L85.1673703,19.2296587 L85.1673703,19.2296587 Z" id="Fill-14" fill="#FFFFFF"></path>
                    <path d="M90.2086926,14.5053912 C89.6842748,14.5053912 89.2755596,14.096676 89.2755596,13.5572319 C89.2755596,13.0177879 89.6977985,12.6240989 90.2387452,12.6240989 C90.7781892,12.6240989 91.2154544,13.0177879 91.2004281,13.5572319 C91.2004281,14.1267285 90.7932155,14.5053912 90.2086926,14.5053912 L90.2086926,14.5053912 Z M89.4513672,15.6729344 L91.0261231,15.6729344 L91.0261231,22.7593356 L89.4513672,22.7593356 L89.4513672,15.6729344 Z" id="Fill-15" fill="#FFFFFF"></path>
                    <polygon id="Fill-16" fill="#FFFFFF" points="93.8240194 12.4212439 95.3987752 12.4212439 95.3987752 22.7593356 93.8240194 22.7593356"></polygon>
                    <path d="M102.091487,22.7593356 L101.97278,21.9434077 L101.930706,21.9434077 C101.449865,22.6000569 100.749639,22.920117 99.8600825,22.920117 C98.5918631,22.920117 97.6872801,22.0305603 97.6872801,20.8344671 C97.6872801,19.0854062 99.2034334,18.1808232 101.828527,18.1808232 L101.828527,18.0500944 C101.828527,17.1169615 101.33266,16.6496436 100.35595,16.6496436 C99.6557249,16.6496436 99.042652,16.8254513 98.5047106,17.175564 L98.1831479,16.1387496 C98.839797,15.7300343 99.6557249,15.5256767 100.61891,15.5256767 C102.47015,15.5256767 103.406288,16.5023859 103.406288,18.4573071 L103.406288,21.0673747 C103.406288,21.7826264 103.436341,22.3370967 103.505462,22.7593356 L102.091487,22.7593356 L102.091487,22.7593356 Z M101.872104,19.2296587 C100.12154,19.2296587 99.2470096,19.6534002 99.2470096,20.6586594 C99.2470096,21.4024611 99.6993011,21.7660974 100.325898,21.7660974 C101.128302,21.7660974 101.872104,21.1545272 101.872104,20.323573 L101.872104,19.2296587 L101.872104,19.2296587 Z" id="Fill-17" fill="#FFFFFF"></path>
                    <path d="M109.784951,22.920117 C108.779692,22.920117 108.037393,22.4963754 107.555049,21.6654213 L107.524996,21.6654213 L107.434838,22.7593356 L106.094493,22.7593356 C106.136566,22.1913416 106.151593,21.5482161 106.151593,20.8494934 L106.151593,12.4212439 L107.729354,12.4212439 L107.729354,16.7097488 L107.757904,16.7097488 C108.225221,15.9223709 108.982547,15.528682 110.017859,15.528682 C111.724846,15.528682 112.920939,16.9877353 112.920939,19.1154588 C112.920939,21.3153086 111.592614,22.920117 109.784951,22.920117 L109.784951,22.920117 Z M109.464891,16.7653461 C108.558805,16.7653461 107.729354,17.552724 107.729354,18.6466384 L107.729354,19.8863078 C107.729354,20.8630171 108.474658,21.6654213 109.436341,21.6654213 C110.615905,21.6654213 111.319136,20.7037383 111.319136,19.1725587 C111.317633,17.743558 110.587355,16.7653461 109.464891,16.7653461 L109.464891,16.7653461 Z" id="Fill-18" fill="#FFFFFF"></path>
                    <polygon id="Fill-19" fill="#FFFFFF" points="115.251518 12.4212439 116.824771 12.4212439 116.824771 22.7593356 115.251518 22.7593356"></polygon>
                    <path d="M125.39577,19.5947977 L120.668497,19.5947977 C120.700052,20.9366459 121.586604,21.6939712 122.8984,21.6939712 C123.600128,21.6939712 124.24175,21.5767661 124.809744,21.3588848 L125.054673,22.4527992 C124.3845,22.7443093 123.597122,22.8900644 122.679016,22.8900644 C120.461134,22.8900644 119.149339,21.4896136 119.149339,19.3183138 C119.149339,17.1455114 120.49269,15.512153 122.503208,15.512153 C124.309369,15.512153 125.449865,16.8540013 125.449865,18.8810486 C125.454373,19.1575325 125.440849,19.4054663 125.39577,19.5947977 L125.39577,19.5947977 Z M123.953246,18.4723334 C123.953246,17.378419 123.397273,16.6060674 122.390511,16.6060674 C121.485928,16.6060674 120.773681,17.3934453 120.668497,18.4723334 L123.953246,18.4723334 L123.953246,18.4723334 Z" id="Fill-20" fill="#FFFFFF"></path>
                    <path d="M134.940473,22.920117 C132.86985,22.920117 131.528001,21.3739111 131.528001,19.2747376 C131.528001,17.0869089 132.8984,15.5271793 135.059181,15.5271793 C137.098249,15.5271793 138.471653,16.9997563 138.471653,19.1590351 C138.471653,21.3739111 137.056176,22.920117 134.940473,22.920117 L134.940473,22.920117 Z M135.000578,16.6781936 C133.863088,16.6781936 133.134312,17.7420554 133.134312,19.2296587 C133.134312,20.688712 133.878114,21.7525738 134.985552,21.7525738 C136.09299,21.7525738 136.836792,20.6150832 136.836792,19.1996061 C136.836792,17.7570817 136.108016,16.6781936 135.000578,16.6781936 L135.000578,16.6781936 Z" id="Fill-21" fill="#FFFFFF"></path>
                    <path d="M146.937468,22.7593356 L145.365717,22.7593356 L145.365717,18.6902146 C145.365717,17.4370216 144.883373,16.8089224 143.935214,16.8089224 C143.002081,16.8089224 142.358956,17.6113266 142.358956,18.5444596 L142.358956,22.7593356 L140.787205,22.7593356 L140.787205,17.6984791 C140.787205,17.0718826 140.769173,16.4002071 140.7271,15.6714318 L142.112524,15.6714318 L142.186153,16.7653461 L142.231232,16.7653461 C142.650466,16.0080208 143.512975,15.5256767 144.476161,15.5256767 C145.960759,15.5256767 146.937468,16.6631673 146.937468,18.514407 L146.937468,22.7593356" id="Fill-22" fill="#FFFFFF"></path>
                    <path d="M157.240999,16.8540013 L155.508467,16.8540013 L155.508467,20.2950231 C155.508467,21.1710561 155.813501,21.6083213 156.425071,21.6083213 C156.701555,21.6083213 156.937468,21.5782687 157.125297,21.5346925 L157.168873,22.7307856 C156.862336,22.8479908 156.452119,22.9065933 155.945732,22.9065933 C154.703058,22.9065933 153.963764,22.2213942 153.963764,20.4272545 L153.963764,16.8540013 L152.931457,16.8540013 L152.931457,15.6729344 L153.963764,15.6729344 L153.963764,14.3746624 L155.508467,13.9073446 L155.508467,15.6714318 L157.240999,15.6714318 L157.240999,16.8540013" id="Fill-23" fill="#FFFFFF"></path>
                    <path d="M165.580593,22.7593356 L164.004335,22.7593356 L164.004335,18.7202672 C164.004335,17.4520479 163.521991,16.810425 162.575334,16.810425 C161.759406,16.810425 161.002081,17.3648953 161.002081,18.4873596 L161.002081,22.7593356 L159.425823,22.7593356 L159.425823,12.4212439 L161.002081,12.4212439 L161.002081,16.6781936 L161.032134,16.6781936 C161.526499,15.905842 162.243253,15.5256767 163.16136,15.5256767 C164.662487,15.5256767 165.580593,16.6917173 165.580593,18.5444596 L165.580593,22.7593356" id="Fill-24" fill="#FFFFFF"></path>
                    <path d="M173.627175,19.5947977 L168.901405,19.5947977 C168.931457,20.9366459 169.818009,21.6939712 171.131307,21.6939712 C171.834538,21.6939712 172.474658,21.5767661 173.039647,21.3588848 L173.286078,22.4527992 C172.617408,22.7443093 171.828527,22.8900644 170.908918,22.8900644 C168.692539,22.8900644 167.380744,21.4896136 167.380744,19.3183138 C167.380744,17.1455114 168.722592,15.512153 170.73311,15.512153 C172.540774,15.512153 173.679767,16.8540013 173.679767,18.8810486 C173.685777,19.1575325 173.670751,19.4054663 173.627175,19.5947977 L173.627175,19.5947977 Z M172.183148,18.4723334 C172.183148,17.378419 171.63018,16.6060674 170.623418,16.6060674 C169.718835,16.6060674 169.005086,17.3934453 168.901405,18.4723334 L172.183148,18.4723334 L172.183148,18.4723334 Z" id="Fill-25" fill="#FFFFFF"></path>
                </g>
            </g>
        </g>
    </g>
</svg>