<?xml version="1.0" encoding="UTF-8"?>
<svg width="100px" height="100px" viewBox="0 0 100 100" version="1.1" xmlns="http://www.w3.org/2000/svg" xmlns:xlink="http://www.w3.org/1999/xlink">
    <!-- Generator: Sketch 43.2 (39069) - http://www.bohemiancoding.com/sketch -->
    <title>global/brandlogo</title>
    <desc>Created with Sketch.</desc>
    <defs></defs>
    <g id="Symbols" stroke="none" stroke-width="1" fill="none" fill-rule="evenodd">
        <g id="global/brandlogo" fill="#FFFFFF">
            <g id="fi-asl-copy-2" transform="translate(3.000000, 20.000000)">
                <g id="Group">
                    <path d="M19.984029,14.2050817 C20.3618875,13.9785844 20.7800363,13.8021779 21.1067151,13.5168784 C24.785118,10.3415608 28.8381125,7.74010889 33.4998185,6.33974592 C35.9085299,5.61560799 38.4903811,5.4446461 41.0101633,5.153902 C41.4718693,5.10272232 42.2384755,5.5753176 42.4431942,6.00217786 C42.6490018,6.43557169 42.5292196,7.30344828 42.2014519,7.65408348 C41.615608,8.28239564 40.8272232,8.84863884 40.0170599,9.11869328 C36.9179673,10.154265 33.7557169,11.0036298 30.6642468,12.0598911 C29.9313975,12.3092559 29.3967332,13.1139746 28.7466425,13.6333938 C27.2417423,14.8323049 25.7215971,16.0214156 24.2101633,17.2127042 C23.9716878,17.4021779 23.7473684,17.6112523 23.5165154,17.8127042 C23.5622505,17.8954628 23.6090744,17.9793103 23.6548094,18.0631579 C24.4279492,17.7375681 25.1836661,17.3651543 25.9774955,17.1016334 C28.4537205,16.2598911 30.892922,15.1252269 33.4431942,14.7484574 C35.6439201,14.4217786 37.9807623,14.9313975 40.246824,15.1731397 C40.7738657,15.2330309 41.3030853,15.6511797 41.7506352,16.0072595 C43.4058076,17.3096189 45.0217786,18.6598911 46.6627949,19.9883848 C47.2268603,20.445735 47.2323049,20.8856624 46.8076225,21.4813067 C45.799274,22.8892922 44.523049,23.3313975 43.030127,22.461343 C41.8442831,21.769873 40.7814882,20.861706 39.7001815,20.0068966 C39.1252269,19.5517241 38.6123412,19.3862069 37.8250454,19.5125227 C36.323412,19.7477314 34.7803993,19.7030853 33.261343,19.8479129 C32.7027223,19.9001815 32.0733212,20.0286751 31.6290381,20.33902 C29.5197822,21.8341198 27.4453721,23.3782214 25.4058076,24.9669691 C25.0225045,25.2642468 24.8548094,25.845735 24.7589837,26.4707804 C24.9637024,26.3793103 25.1880218,26.3150635 25.369873,26.1920145 C27.0359347,25.0562613 28.9709619,24.9005445 30.8820327,24.6598911 C31.4907441,24.5825771 32.1125227,24.5825771 32.7168784,24.4802178 C35.1876588,24.0631579 37.0758621,25.2500907 38.8965517,26.6602541 C40.3938294,27.8188748 41.9117967,28.9513612 43.3981851,30.1219601 C44.2725953,30.8101633 44.7201452,31.7096189 44.7125227,32.8595281 C44.6983666,34.7836661 44.8181488,36.7143376 44.1147005,38.568784 C44.0319419,38.7854809 43.9883848,39.1960073 44.1059891,39.2874773 C45.276588,40.1836661 44.5099819,41.1800363 44.2029038,42.06098 C43.5506352,43.9524501 42.7676951,45.7938294 42.03049,47.6548094 C41.3259528,49.4264973 40.2479129,50.6123412 38.2399274,51.1818512 C33.800363,52.446098 29.4413793,53.9945554 25.0595281,55.4558984 C23.2682396,56.0558984 21.5194192,56.2900181 19.6170599,55.83049 C16.0050817,54.9626134 12.4486388,55.3437387 9.04573503,56.8519056 C7.46352087,57.5553539 5.92377495,58.3568058 4.30998185,59.1419238 C2.45771325,56.4816697 1.36551724,53.5742287 0.687114338,50.4903811 C-0.113248639,46.8642468 -0.162250454,43.2054446 0.282032668,39.5346642 C0.320145191,39.2177858 0.607622505,38.7735027 0.889655172,38.6602541 C4.49618875,37.1880218 6.16116152,34.1727768 7.35462795,30.7317604 C8.77241379,26.6493648 9.44863884,22.2119782 11.953176,18.6217786 C14.7288566,14.6406534 16.8696915,10.2043557 20.5034483,6.80689655 C22.2947368,5.13103448 23.7375681,3.08602541 25.3284936,1.20108893 C26.0711434,0.322323049 26.4130672,0.3353902 27.0511797,1.30344828 C27.7785844,2.40544465 27.6032668,3.58366606 26.7049002,4.71506352 C24.5357532,7.45480944 22.4123412,10.2272232 20.2845735,12.9963702 C20.061343,13.2914701 19.938294,13.6606171 19.7684211,13.9960073 C19.8392015,14.0635209 19.9110708,14.1321234 19.984029,14.2050817 L19.984029,14.2050817 Z M35.6221416,45.0185118 C36.5052632,45.0185118 37.3023593,45.2569873 37.7401089,44.3150635 C38.600363,42.4638838 39.9092559,40.9622505 41.4903811,39.6969147 C41.9607985,39.3179673 41.9139746,39.0054446 41.6471869,38.4990926 C40.8805808,37.031216 40.2261343,35.5045372 39.4736842,34.030127 C39.2624319,33.6228675 38.9248639,33.2166969 38.5393829,32.9684211 C37.2010889,32.1136116 35.8388385,31.2882033 34.4428312,30.5357532 C34.0715064,30.3332123 33.4932849,30.2656987 33.1023593,30.399637 C32.0428312,30.7676951 31.0442831,31.307804 30.0010889,31.7292196 C29.0591652,32.1103448 28.0780399,32.384755 27.1393829,32.7669691 C24.9016334,33.677314 24.3593466,35.7441016 23.7005445,37.7738657 C23.2595281,39.1263158 23.5578947,40.1172414 24.5259528,41.122323 C25.8065336,42.4486388 26.9869328,43.8794918 28.137931,45.323412 C28.5451906,45.8352087 28.9154265,45.8635209 29.4479129,45.6871143 C31.5027223,45.0065336 33.5901996,44.6145191 35.6221416,45.0185118 L35.6221416,45.0185118 Z" id="Shape"></path>
                    <path d="M73.491833,45.8624319 C72.7785844,46.3960073 72.0294011,46.8903811 71.3607985,47.4751361 C68.077677,50.3564428 64.2969147,52.4166969 60.1938294,53.7397459 C57.8079855,54.5117967 55.2185118,54.7219601 52.7009074,54.9800363 C51.2722323,55.1281307 50.4980036,53.6482759 51.3941924,52.4961887 C51.9506352,51.7862069 52.8653358,51.2090744 53.7353902,50.9128857 C56.3814882,50.015608 59.1049002,49.3470054 61.753176,48.4508167 C62.7125227,48.1252269 63.5934664,47.4805808 64.415608,46.862069 C66.1263158,45.5651543 67.7749546,44.1854809 69.4442831,42.8384755 C69.6892922,42.6402904 69.9179673,42.4235935 70.0203267,41.9858439 C69.1088929,42.3745917 68.2203267,42.8254083 67.2860254,43.1444646 C64.985118,43.938294 62.7092559,45.0119782 60.3364791,45.3245009 C58.0834846,45.6228675 55.7161525,45.1459165 53.4087114,44.9052632 C52.8871143,44.8519056 52.3774955,44.4032668 51.922323,44.0591652 C50.476225,42.9593466 49.0562613,41.8279492 47.6330309,40.6987296 C46.1684211,39.5357532 46.3894737,38.0254083 48.2232305,37.4471869 C48.9375681,37.2217786 49.9491833,37.2936479 50.5970962,37.6475499 C51.8896552,38.3553539 53.0090744,39.3811252 54.2417423,40.2108893 C54.5869328,40.4471869 55.0791289,40.5898367 55.4950998,40.5724138 C57.0914701,40.507078 58.692196,40.4134301 60.276588,40.2130672 C61.000726,40.1248639 61.7945554,39.9114338 62.3814882,39.5009074 C64.3796733,38.108167 66.323412,36.6294011 68.2344828,35.1157895 C68.6352087,34.7989111 68.8127042,34.1989111 68.9880218,33.6185118 C66.4094374,35.3161525 63.5194192,35.3259528 60.6686025,35.5568058 C58.7934664,35.707078 57.169873,35.2562613 55.6943739,34.0497278 C53.7822142,32.4827586 51.7600726,31.0486388 49.8598911,29.4686025 C49.4090744,29.092922 48.999637,28.3557169 49.0094374,27.7927405 C49.0453721,25.8794918 49.2544465,23.9673321 49.4428312,22.0606171 C49.5049002,21.4268603 49.8424682,20.8203267 49.1738657,20.2573503 C48.9833031,20.0983666 48.9778584,19.5615245 49.0693285,19.2533575 C49.2969147,18.4878403 49.6377495,17.7604356 49.9165154,17.0112523 C50.4511797,15.5825771 50.9782214,14.1506352 51.4976407,12.7110708 C52.2043557,10.7499093 53.3880218,9.45735027 55.5364791,8.84428312 C59.93902,7.57568058 64.2696915,6.06206897 68.6243194,4.62686025 C70.4493648,4.02032668 72.2166969,3.76878403 74.169147,4.28711434 C77.9760436,5.29655172 81.6707804,4.58548094 85.2043557,2.98039927 C86.5589837,2.36188748 87.8646098,1.63883848 89.2682396,0.925589837 C90.8700544,2.87803993 91.7063521,5.19419238 92.4446461,7.54627949 C93.7774955,11.7887477 93.8341198,16.1324864 93.430127,20.5132486 C93.3408348,21.4911071 92.5317604,21.6239564 91.9339383,21.8754991 C89.7680581,22.7912886 88.4199637,24.5139746 87.5107078,26.5154265 C86.5241379,28.6932849 85.7629764,30.9887477 85.0486388,33.2744102 C84.0479129,36.4802178 82.9905626,39.6424682 81.1001815,42.4660617 C79.6649728,44.6079855 78.369147,46.8511797 76.845735,48.9266788 C75.6021779,50.6210526 74.108167,52.1303085 72.7339383,53.7277677 C71.2671506,55.430853 69.8123412,57.1448276 68.3466425,58.8490018 C67.5669691,59.7528131 67.1912886,59.7179673 66.5499093,58.6911071 C65.8529946,57.5749546 66.0533575,56.4794918 66.999637,55.2969147 C69.1546279,52.5941924 71.261706,49.8555354 73.368784,47.1147005 C73.5865699,46.8326679 73.6682396,46.4450091 73.8141561,46.1063521 C73.7041742,46.0246824 73.5974592,45.9462795 73.491833,45.8624319 L73.491833,45.8624319 Z M52.0127042,20.9836661 C52.7041742,22.646461 53.4098004,24.414882 54.1883848,26.1451906 C54.3593466,26.5284936 54.7470054,26.8660617 55.1150635,27.1001815 C56.462069,27.9419238 57.8689655,28.6954628 59.1985481,29.5655172 C59.6831216,29.8834846 60.0054446,29.9586207 60.5564428,29.7201452 C62.1822142,29.0068966 63.8450091,28.3753176 65.5045372,27.7393829 C67.1117967,27.1295826 68.5502722,26.3183303 69.185118,24.5923775 C69.5107078,23.707078 69.8112523,22.8043557 70.0431942,21.892922 C70.2969147,20.8976407 70.1575318,20.0199637 69.3735027,19.1891107 C67.9796733,17.7179673 66.7295826,16.1194192 65.3793103,14.6058076 C65.2061706,14.4076225 64.7564428,14.2823956 64.5092559,14.3607985 C62.1898367,15.0969147 59.8551724,15.4399274 57.4137931,15.0642468 C56.96951,14.9923775 56.2780399,15.3430127 55.9753176,15.7219601 C54.5803993,17.4598911 53.2856624,19.2740472 52.0127042,20.9836661 L52.0127042,20.9836661 Z" id="Shape" transform="translate(70.161484, 30.210725) scale(1, -1) translate(-70.161484, -30.210725) "></path>
                </g>
            </g>
        </g>
    </g>
</svg>