<svg xmlns="http://www.w3.org/2000/svg" xmlns:xlink="http://www.w3.org/1999/xlink" width="200" height="68" version="1.1" viewBox="0 0 200 68"><title>Group 3</title><desc>Created with Sketch.</desc><defs><linearGradient id="linearGradient-1" x1="58.917%" x2="90.81%" y1="9.59%" y2="60.851%"><stop offset="0%" stop-color="#FF177B"/><stop offset="100%" stop-color="#FFEC73"/></linearGradient><linearGradient id="linearGradient-2" x1="37.103%" x2="0%" y1="-44.035%" y2="101.06%"><stop offset="0%" stop-color="#064AA2"/><stop offset="100%" stop-color="#63FFD4"/></linearGradient><path id="path-3" d="M18.8219364,17.197021 L0.67704807,0 C0.253728171,0.0983326815 0,0.414980364 0,0.947867299 L0,17.197021 L0,33.8524035 C0,34.3045182 0.182257491,34.5735154 0.406228842,34.6648612 L18.8219364,17.197021 Z"/><path id="path-5" d="M0.884816595,17.4387539 L11.3725725,11.6774658 C13.9552095,10.2463898 16.0048545,9.11064225 16.0048545,9.11064225 L23.6317127,5.0026637 L18.5541002,0.0687833245 L0.138607522,17.5387972 C0.343865197,17.6048108 0.70563792,17.5687276 0.987878471,17.429427"/><linearGradient id="linearGradient-7" x1="78.645%" x2="2.495%" y1="50%" y2="100%"><stop offset="0%" stop-color="#FF4521"/><stop offset="100%" stop-color="#8A33DB"/></linearGradient><linearGradient id="linearGradient-8" x1="0%" x2="64.224%" y1="-24.186%" y2="100%"><stop offset="0%" stop-color="#00A3B5"/><stop offset="100%" stop-color="#D6FFA1"/></linearGradient><path id="path-9" d="M1.10074798,0.290707414 C0.751443554,0.103628595 0.404382754,0.0501120603 0.123633705,0.125749231 L18.2835866,17.3477865 L23.3076467,12.593367 L15.7345972,8.39845066 C15.7345972,8.39845066 8.59675243,4.44375396 4.28687986,2.05582989 L1.10074798,0.290707414 Z"/></defs><g id="Symbols" fill="none" fill-rule="evenodd" stroke="none" stroke-width="1"><g id="logo-googleplay"><g id="Group-3"><g id="Play-Store"><rect id="background" width="200" height="67.705" x="0" y="0" fill="#000" rx="4"/><g id="icon" transform="translate(8.124577, 24.102911)"><path id="orange" fill="url(#linearGradient-1)" d="M16.2734263,8.39845066 C16.2734263,8.39845066 2.47445618,0.753181864 1.66402122,0.304015577 C0.85223777,-0.145150709 0.044499757,0.127316528 0.044499757,1.06611453 L0.044499757,17.3871718 L0.044499757,34.0400456 C0.044499757,34.7427952 0.62164812,35.0476348 1.32690184,34.6578178 C2.03080709,34.2680008 16.2734263,26.3758929 16.2734263,26.3758929 C16.2734263,26.3758929 18.2082613,25.3044802 19.1756788,24.7687739 C20.7326112,23.9066244 23.8464758,22.1823254 23.8464758,22.1823254 C23.8464758,22.1823254 30.2719711,18.6213674 31.1269058,18.1492707 C31.980492,17.6758252 31.8982349,17.0270294 31.1781479,16.6533986 C30.4567125,16.2811167 23.8464758,12.593367 23.8464758,12.593367 L16.2734263,8.39845066 Z"/><g id="blue" transform="translate(0.000000, 0.135410)"><mask id="mask-4" fill="#fff"><use xlink:href="#path-3"/></mask><use id="Clip-2" fill="url(#linearGradient-2)" xlink:href="#path-3"/><path id="Fill-1" d="M23.8320921,12.4576845 L16.2491537,8.25998646 C16.2225973,8.32106866 2.42900876,0.661757916 1.62491537,0.270819228 C0.807423,-0.238224609 0,0.0347430637 0,0.947867299 L0,17.3324306 C0,17.3262992 0,33.3043673 0,33.9878131 C0,34.7137994 0.576923279,35.0191989 1.21868653,34.6648612 C1.98553269,34.238133 16.2225973,26.3315298 16.2491537,26.2694651 L23.8320921,22.0717671 C23.7926934,22.13026 30.2156827,18.5627617 31.0088016,18.1448883 C31.9235374,17.6154828 31.8413124,16.9654954 31.1442112,16.6553825 C30.4003521,16.2182126 23.7926934,12.5236898 23.8320921,12.4576845" mask="url(#mask-4)"/></g><g id="red" transform="translate(0.268572, 17.265251)"><mask id="mask-6" fill="#fff"><use xlink:href="#path-5"/></mask><path id="Fill-7" fill="url(#linearGradient-7)" d="M15.9805819,-8.86985457 C15.9540256,-8.80877237 2.16043699,-16.4680831 1.3563436,-16.8590218 C0.538851234,-17.3680656 -0.268571766,-17.095098 -0.268571766,-16.1819737 L-0.268571766,0.202589578 C-0.268571766,0.196458183 -0.268571766,16.1745263 -0.268571766,16.8579721 C-0.268571766,17.5839584 0.308351513,17.8893579 0.950114761,17.5350202 C1.71696092,17.108292 15.9540256,9.20168874 15.9805819,9.13962411 L23.5635203,4.94192607 C23.5241217,5.00041896 29.947111,1.43292066 30.7402299,1.01504726 C31.6549656,0.485641757 31.5727406,-0.164345622 30.8756395,-0.474458493 C30.1317804,-0.91162841 23.5241217,-4.60615127 23.5635203,-4.67215653 L15.9805819,-8.86985457 Z" mask="url(#mask-6)"/></g><g id="green" transform="translate(0.538829, 0.000000)"><mask id="mask-10" fill="#fff"><use xlink:href="#path-9"/></mask><use id="Clip-5" fill="url(#linearGradient-8)" xlink:href="#path-9"/><path id="Fill-4" d="M23.293263,12.5930941 L15.7103246,8.39539607 C15.6837682,8.45647827 1.89017963,0.79716753 1.08608624,0.406228842 C0.268593872,-0.102814995 -0.538829128,0.170152678 -0.538829128,1.08327691 L-0.538829128,17.4678402 C-0.538829128,17.4617088 -0.538829128,33.439777 -0.538829128,34.1232227 C-0.538829128,34.849209 0.0380941505,35.1546085 0.679857399,34.8002708 C1.44670356,34.3735426 15.6837682,26.4669394 15.7103246,26.4048747 L23.293263,22.2071767 C23.2538643,22.2656696 29.6768536,18.6981713 30.4699725,18.2802979 C31.3847083,17.7508924 31.3024832,17.100905 30.6053821,16.7907921 C29.861523,16.3536222 23.2538643,12.6590994 23.293263,12.5930941" mask="url(#mask-10)"/></g></g><g id="Google-play" fill="#FFF" transform="translate(46.987136, 27.217332)"><path id="Fill-1" d="M89.9952972,20.0229927 L88.4958122,21.4462246 C88.1492769,21.6377955 87.8045997,21.8602047 87.4608516,22.0181339 C86.4193876,22.4937905 85.3602718,22.6134056 84.4191452,22.6134056 C83.4176303,22.6134056 81.8475375,22.5479911 80.2458571,21.3826791 C78.0207847,19.8061905 77.0480704,17.0961626 77.0480704,14.7347003 C77.0480704,9.84543621 81.0048901,7.44752877 84.2324063,7.44752877 C85.3602718,7.44752877 86.5187959,7.73161446 87.4608516,8.33062407 C89.0272282,9.37258307 89.4322935,10.7266625 89.6571234,11.4518286 L82.2869777,14.4468767 L79.8733084,14.6356441 C80.6546386,18.6446164 83.3507388,20.9761749 86.3301989,20.9761749 C87.8185354,20.9761749 88.9231747,20.4874354 89.9367671,19.983744 C89.9367671,19.983744 90.1402289,19.8772119 89.9952972,20.0229927 L89.9952972,20.0229927 Z M85.4921457,11.980709 C86.0836443,11.7605664 86.3913338,11.5705289 86.3913338,11.1283622 C86.3913338,9.86019067 84.9906578,8.39539607 83.3190313,8.39539607 C82.0809256,8.39539607 79.7562627,9.38321517 79.7562627,12.8132994 C79.7562627,13.3486032 79.8187191,13.918716 79.8499473,14.4888287 L85.4921457,11.980709 L85.4921457,11.980709 Z"/><path id="Fill-2" d="M74.6142344,19.8514746 C74.6142344,21.0736058 74.8309201,21.2637772 75.8578624,21.3597951 C76.3930947,21.4231856 76.926475,21.451152 77.4542993,21.5145425 L76.298642,22.2071767 L70.7916756,22.2071767 C71.5139615,21.2637772 71.6380465,21.1696237 71.6380465,20.5413122 L71.6380465,19.8393558 L71.6260084,1.13543536 L69.1943128,1.13543536 L71.5352596,0 L76.0041716,0 C75.0355678,0.564921043 74.7457275,0.908907619 74.6216425,2.0098511 L74.6142344,19.8514746"/><path id="Fill-3" d="M66.0702931,8.99089505 C66.7867726,9.58462993 68.2816726,10.8448019 68.2816726,13.2346547 C68.2816726,15.5639223 66.9790665,16.6619124 65.6653665,17.7011814 C65.262289,18.1103645 64.7907992,18.5540345 64.7907992,19.2400453 C64.7907992,19.9363089 65.262289,20.3138013 65.6015767,20.5952894 L66.7285298,21.4723765 C68.0986236,22.6384085 69.3476093,23.7075041 69.3476093,25.8792502 C69.3476093,28.8376717 66.5075767,31.8212593 61.1409136,31.8212593 C56.6201587,31.8212593 54.4346649,29.6504453 54.4346649,27.3230419 C54.4346649,26.1905648 54.9939812,24.5864554 56.8392627,23.4875332 C58.7732953,22.2954031 61.3932993,22.1360174 62.7966748,22.0428094 C62.3584666,21.4723765 61.8583177,20.8749134 61.8583177,19.8999578 C61.8583177,19.3668081 62.0173299,19.0489689 62.1707952,18.6742728 C61.8296585,18.7068956 61.4857483,18.7404505 61.1732708,18.7404505 C57.8645219,18.7404505 55.9942791,16.2517972 55.9942791,13.7994951 C55.9942791,12.3529071 56.6488179,10.7478656 57.993026,9.58462993 C59.7717443,8.10821542 61.8925238,7.85375762 63.5778686,7.85375762 L70.0067705,7.85375762 L68.0080236,8.99089505 L66.0702931,8.99089505 L66.0702931,8.99089505 Z M63.8754376,22.9183852 C63.6172808,22.8842248 63.4625731,22.8842248 63.1512937,22.8842248 C62.8661097,22.8842248 61.167121,22.9468521 59.8511737,23.3966305 C59.1549891,23.65568 57.1428571,24.4214419 57.1428571,26.6959538 C57.1428571,28.9657213 59.3152886,30.6025728 62.675987,30.6025728 C65.6955829,30.6025728 67.2985782,29.128932 67.2985782,27.1447832 C67.2985782,25.5117273 66.2612911,24.6501266 63.8754376,22.9183852 L63.8754376,22.9183852 Z M64.7576458,16.8605665 C65.4756573,16.1367206 65.5382532,15.1369027 65.5382532,14.5691622 C65.5382532,12.3139966 64.2062497,8.80162492 61.6241697,8.80162492 C60.8187081,8.80162492 59.9460479,9.20954321 59.450804,9.84046923 C58.9251827,10.493696 58.7677725,11.3411254 58.7677725,12.1560328 C58.7677725,14.2560222 59.9810279,17.7386594 62.6496375,17.7386594 C63.4284039,17.7386594 64.266084,17.3567587 64.7576458,16.8605665 L64.7576458,16.8605665 Z"/><path id="Fill-4" d="M46.6265218,22.6134056 C41.6569374,22.6134056 38.9979689,18.6931217 38.9979689,15.1435613 C38.9979689,10.9961506 42.3406722,7.44752877 47.0953155,7.44752877 C51.6915326,7.44752877 54.5700745,11.0928203 54.5700745,14.9201886 C54.5700745,18.6583957 51.7248855,22.6134056 46.6265218,22.6134056 L46.6265218,22.6134056 Z M50.5129921,20.049478 C51.2715834,19.0329694 51.4556534,17.7642162 51.4556534,16.5274642 C51.4556534,13.7301834 50.1392743,8.39539607 46.2487048,8.39539607 C45.2140085,8.39539607 44.1718751,8.80482311 43.420721,9.47308334 C42.1954472,10.5846542 41.9769804,11.9814122 41.9769804,13.3518163 C41.9769804,16.4898157 43.5090374,21.6655383 47.3112904,21.6655383 C48.5384235,21.6655383 49.7906569,21.064104 50.5129921,20.049478 L50.5129921,20.049478 Z"/><path id="Fill-5" d="M29.9706102,22.6134056 C24.9980284,22.6134056 22.3425863,18.6931217 22.3425863,15.1435613 C22.3425863,10.9961506 25.6876092,7.44752877 30.4423798,7.44752877 C35.0377313,7.44752877 37.9146919,11.0928203 37.9146919,14.9201886 C37.9146919,18.6583957 35.072025,22.6134056 29.9706102,22.6134056 L29.9706102,22.6134056 Z M33.8590072,20.049478 C34.6123901,19.0329694 34.8002708,17.7642162 34.8002708,16.5274642 C34.8002708,13.7301834 33.4795255,8.39539607 29.5907676,8.39539607 C28.5518433,8.39539607 27.5203598,8.80482311 26.7669769,9.47308334 C25.5392418,10.5846542 25.3215978,11.9814122 25.3215978,13.3518163 C25.3215978,16.4898157 26.8609172,21.6655383 30.6585251,21.6655383 C31.8834699,21.6655383 33.1344575,21.064104 33.8590072,20.049478 L33.8590072,20.049478 Z"/><path id="Fill-6" d="M20.2809729,21.6764264 L16.0716266,22.6465644 C14.3661156,22.9171916 12.8345983,23.155044 11.2128276,23.155044 C3.09373927,23.155044 0,17.1403759 0,12.4329593 C0,6.6842364 4.38334006,1.35409614 11.8901937,1.35409614 C13.4784683,1.35409614 15.0062637,1.58913922 16.3982138,1.97120128 C18.6043058,2.5948614 19.6361725,3.36366764 20.2809729,3.81408884 L17.8357558,6.15140966 L16.8048195,6.38364345 L17.5398734,5.20468235 C16.5442941,4.22611655 14.7141031,2.41974962 11.2407411,2.41974962 C6.59687561,2.41974962 3.09373927,5.97255217 3.09373927,11.1594192 C3.09373927,16.730221 7.09373479,21.9704643 13.5091731,21.9704643 C15.3942605,21.9704643 16.3647177,21.5893387 17.2458518,21.2334966 L17.2458518,16.4577209 L12.8011022,16.6983825 L15.1569963,15.4248424 L21.394719,15.4248424 L20.6317517,16.163683 C20.4261228,16.3397312 20.3982093,16.3996625 20.3405216,16.635642 C20.3098168,16.9053328 20.2809729,17.7630996 20.2809729,18.064629 L20.2809729,21.6764264"/><path id="Fill-7" d="M99.0795414,20.1678773 L99.0795414,28.1651997 L97.4949221,28.1651997 L97.4949221,7.81506134 L99.0795414,7.81506134 L99.0795414,10.1328426 C100.111818,8.63479852 101.998137,7.44752877 104.188941,7.44752877 C108.118462,7.44752877 110.765064,10.4352428 110.765064,15.1647821 C110.765064,19.8626857 108.118462,22.9127407 104.188941,22.9127407 C102.120674,22.9127407 100.267774,21.8436397 99.0795414,20.1678773 L99.0795414,20.1678773 Z M109.140149,15.2867121 C109.140149,11.6845183 107.279394,8.93703453 103.979977,8.93703453 C101.931004,8.93703453 99.9714801,10.5618299 99.1198375,11.9788244 L99.1198375,18.5616902 C99.9714801,19.9815056 101.931004,21.6655383 103.979977,21.6655383 C107.279394,21.6655383 109.140149,18.8945476 109.140149,15.2867121 L109.140149,15.2867121 Z"/><polygon id="Fill-8" points="112.932 2.167 114.557 2.167 114.557 22.613 112.932 22.613"/><path id="Fill-9" d="M132.222515,26.7570882 C132.56137,26.9087876 133.139746,27.0018547 133.506453,27.0018547 C134.475672,27.0018547 135.150598,26.6044581 135.756825,25.201006 L136.912648,22.5755826 L130.670278,7.718348 L132.437897,7.718348 L137.792744,20.593253 L143.095602,7.718348 L144.888287,7.718348 L137.274712,25.693331 C136.484668,27.5453666 135.241579,28.436019 133.534304,28.436019 C133.021843,28.436019 132.345988,28.3448132 131.950502,28.2228953 L132.222515,26.7570882"/><path id="Fill-10" d="M127.750508,22.5932312 C127.644071,22.0795479 127.563777,21.6266833 127.504957,21.2486723 C127.456408,20.871597 127.428398,20.4861007 127.428398,20.0940546 C126.882212,20.8977958 126.108214,21.5668004 125.119477,22.093583 C124.129806,22.6241083 123.189619,22.8842248 121.900246,22.8842248 C120.347583,22.8842248 119.142239,22.5015354 118.282346,21.7249287 C117.425254,20.9492577 116.993907,19.8984994 116.993907,18.5689113 C116.993907,17.2411945 117.61852,16.1633018 118.864011,15.3389759 C120.109502,14.5109073 121.719118,14.0992121 123.711531,14.0992121 L127.428398,14.0992121 L127.428398,12.2587478 C127.428398,11.1986328 127.068008,10.3649502 126.348163,9.76050686 C125.625517,9.15512789 124.611571,8.84916356 123.296989,8.84916356 C122.095379,8.84916356 121.120647,9.12892911 120.378394,9.67348948 C119.642676,10.2292779 119.272017,10.9179316 119.272017,11.7478715 L117.640927,11.7478715 L117.607316,11.6683395 C117.548496,10.5492773 118.059203,9.56775869 119.14504,8.72004099 C120.226209,7.87325897 121.642558,7.44752877 123.385686,7.44752877 C125.123212,7.44752877 126.529291,7.86670927 127.588986,8.70319892 C128.647747,9.53126753 129.178995,10.7279904 129.178995,12.2924319 L129.178995,19.6000205 C129.178995,20.1249317 129.204203,20.6320653 129.269559,21.1260994 C129.336782,21.6210693 129.444152,22.1151034 129.587001,22.5932312 L127.750508,22.5932312 L127.750508,22.5932312 Z M122.091984,21.5301286 C123.444622,21.5301286 124.416656,21.22541 125.410146,20.6225561 C126.397106,20.0234642 127.068761,19.2419172 127.420447,18.2957846 L127.420447,15.436696 L123.68903,15.436696 C122.263629,15.436696 121.083568,15.7545815 120.155379,16.3959955 C119.225323,17.0355285 118.754232,17.8095515 118.754232,18.7096001 C118.754232,19.5588623 119.052745,20.2378958 119.64604,20.7523437 C120.241201,21.2724345 121.05465,21.5301286 122.091984,21.5301286 L122.091984,21.5301286 Z"/></g><g id="Get-it-on" fill="#FFF" transform="translate(46.445498, 10.697360)"><path id="Fill-1" d="M0.00575098747,4.91685947 C0.00575098747,2.00012742 2.33490091,0.123907639 5.23118066,0.123907639 C7.17229439,0.123907639 8.44180703,0.985649657 9.23280388,2.04091481 L7.81497933,2.80546135 C7.27769845,2.11034015 6.33652413,1.56969032 5.23118066,1.56969032 C3.26115076,1.56969032 1.79762003,2.9581971 1.79762003,4.91685947 C1.79762003,6.84688389 3.26115076,8.26402861 5.23118066,8.26402861 C6.24697732,8.26402861 7.14244545,7.83359151 7.59017952,7.43092455 L7.59017952,5.99989475 L4.60435296,5.99989475 L4.60435296,4.56886496 L9.32235069,4.56886496 L9.32235069,8.02798246 C8.35226021,9.04246022 6.94842736,9.72282854 5.23118066,9.72282854 C2.33490091,9.72282854 0.00575098747,7.82057426 0.00575098747,4.91685947"/><polyline id="Fill-2" points="11.581 9.582 11.581 .265 18.498 .265 18.498 1.705 13.352 1.705 13.352 4.106 18.392 4.106 18.392 5.545 13.352 5.545 13.352 8.143 18.498 8.143 18.498 9.582 11.581 9.582"/><polyline id="Fill-3" points="23.202 9.582 23.202 1.705 20.192 1.705 20.192 .265 27.956 .265 27.956 1.705 24.946 1.705 24.946 9.582 23.202 9.582"/><polygon id="Fill-4" points="34.167 .265 35.861 .265 35.861 9.582 34.167 9.582"/><polyline id="Fill-5" points="40.707 9.582 40.707 1.705 37.696 1.705 37.696 .265 45.459 .265 45.459 1.705 42.45 1.705 42.45 9.582 40.707 9.582"/><path id="Fill-6" d="M51.2470494,4.92380263 C51.2470494,2.15493328 53.3774663,0.123907639 56.3998833,0.123907639 C59.4053098,0.123907639 61.5517733,2.15493328 61.5517733,4.92380263 C61.5517733,7.69180291 59.4053098,9.72282854 56.3998833,9.72282854 C53.3774663,9.72282854 51.2470494,7.69180291 51.2470494,4.92380263 L51.2470494,4.92380263 Z M59.7166854,4.85278779 C59.7166854,2.95290224 58.4113439,1.53551365 56.3998802,1.53551365 C54.3734125,1.53551365 53.0821372,2.95290224 53.0821372,4.85278779 C53.0821372,6.73805222 54.3734125,8.17006193 56.3998802,8.17006193 C58.4113439,8.17006193 59.7166854,6.73805222 59.7166854,4.85278779 L59.7166854,4.85278779 Z"/><polyline id="Fill-7" points="70.455 9.582 65.27 2.919 65.27 9.582 63.528 9.582 63.528 .265 65.316 .265 70.396 6.719 70.396 .265 72.139 .265 72.139 9.582 70.455 9.582"/></g></g></g></g></g></svg>