<?xml version="1.0" encoding="UTF-8"?>
<svg width="22px" height="17px" viewBox="0 0 22 17" version="1.1" xmlns="http://www.w3.org/2000/svg" xmlns:xlink="http://www.w3.org/1999/xlink">
    <!-- Generator: Sketch 43.2 (39069) - http://www.bohemiancoding.com/sketch -->
    <title>editor_list_view_hambuger_menu_outline_stroke</title>
    <desc>Created with Sketch.</desc>
    <defs></defs>
    <g id="Symbols" stroke="none" stroke-width="1" fill="none" fill-rule="evenodd">
        <g id="menu">
            <g id="editor_list_view_hambuger_menu_outline_stroke">
                <g id="path-1-link" fill="#000000">
                    <path d="M0.577138391,0 C0.258393659,0 0,0.342986453 0,0.772727273 C0,1.19949276 0.262396485,1.54545455 0.577138391,1.54545455 L21.4228616,1.54545455 C21.7416064,1.54545455 22,1.20246809 22,0.772727273 C22,0.345961784 21.7376035,0 21.4228616,0 L0.577138391,0 L0.577138391,0 Z M0.577138391,7.72727273 C0.258393659,7.72727273 0,8.07025916 0,8.5 C0,8.92676545 0.262396485,9.27272727 0.577138391,9.27272727 L21.4228616,9.27272727 C21.7416064,9.27272727 22,8.92974084 22,8.5 C22,8.07323455 21.7376035,7.72727273 21.4228616,7.72727273 L0.577138391,7.72727273 L0.577138391,7.72727273 Z M0.577138391,15.4545455 C0.258393659,15.4545455 0,15.7975319 0,16.2272727 C0,16.6540383 0.262396485,17 0.577138391,17 L21.4228616,17 C21.7416064,17 22,16.6570136 22,16.2272727 C22,15.8005072 21.7376035,15.4545455 21.4228616,15.4545455 L0.577138391,15.4545455 L0.577138391,15.4545455 Z" id="path-1"></path>
                </g>
                <path d="M0.577138391,0 C0.258393659,0 0,0.342986453 0,0.772727273 C0,1.19949276 0.262396485,1.54545455 0.577138391,1.54545455 L21.4228616,1.54545455 C21.7416064,1.54545455 22,1.20246809 22,0.772727273 C22,0.345961784 21.7376035,0 21.4228616,0 L0.577138391,0 L0.577138391,0 Z M0.577138391,7.72727273 C0.258393659,7.72727273 0,8.07025916 0,8.5 C0,8.92676545 0.262396485,9.27272727 0.577138391,9.27272727 L21.4228616,9.27272727 C21.7416064,9.27272727 22,8.92974084 22,8.5 C22,8.07323455 21.7376035,7.72727273 21.4228616,7.72727273 L0.577138391,7.72727273 L0.577138391,7.72727273 Z M0.577138391,15.4545455 C0.258393659,15.4545455 0,15.7975319 0,16.2272727 C0,16.6540383 0.262396485,17 0.577138391,17 L21.4228616,17 C21.7416064,17 22,16.6570136 22,16.2272727 C22,15.8005072 21.7376035,15.4545455 21.4228616,15.4545455 L0.577138391,15.4545455 L0.577138391,15.4545455 Z" id="path-1" fill="#FFFFFF"></path>
            </g>
        </g>
    </g>
</svg>