<svg xmlns="http://www.w3.org/2000/svg" xmlns:xlink="http://www.w3.org/1999/xlink" width="32" height="32" version="1.1" viewBox="0 0 32 32"><title>icon-github</title><desc>Created with Sketch.</desc><g id="Symbols" fill="none" fill-rule="evenodd" stroke="none" stroke-width="1"><g id="footer" fill="#FFF" transform="translate(-700.000000, -151.000000)"><g id="Group-2" transform="translate(700.000000, 38.000000)"><path id="icon-github" d="M15.9991795,113 C7.16348718,113 0,120.163897 0,129.000821 C0,136.069949 4.58338462,142.067077 10.9419487,144.181538 C11.7427692,144.329641 12.0340513,143.836923 12.0340513,143.411487 C12.0340513,143.03241 12.0201026,142.026872 12.0131282,140.690256 C7.56225641,141.658051 6.62317949,138.545026 6.62317949,138.545026 C5.89538462,136.696821 4.84635897,136.205333 4.84635897,136.205333 C3.39364103,135.213333 4.95671795,135.232615 4.95671795,135.232615 C6.56246154,135.346256 7.40758974,136.881026 7.40758974,136.881026 C8.83446154,139.326154 11.1528205,138.618462 12.064,138.211487 C12.2088205,137.17559 12.6231795,136.472 13.0797949,136.071179 C9.52738462,135.667487 5.79241026,134.294769 5.79241026,128.163897 C5.79241026,126.416615 6.41558974,124.988103 7.43876923,123.869333 C7.27507692,123.466462 6.72492308,121.839795 7.59589744,119.635897 C7.59589744,119.635897 8.93907692,119.205949 11.9963077,121.277333 C13.2717949,120.920821 14.6408205,120.742769 16.001641,120.737436 C17.3604103,120.743179 18.7298462,120.920821 20.0069744,121.277333 C23.0621538,119.205949 24.4032821,119.635897 24.4032821,119.635897 C25.2763077,121.839795 24.7265641,123.466462 24.5624615,123.869333 C25.5881026,124.988103 26.2067692,126.416615 26.2067692,128.163897 C26.2067692,134.309128 22.4664615,135.662974 18.9021538,136.057641 C19.4756923,136.552 19.9876923,137.530462 19.9876923,139.023385 C19.9876923,141.161231 19.9684103,142.886359 19.9684103,143.411077 C19.9684103,143.839795 20.256,144.338256 21.0683077,144.179487 C27.4198974,142.060513 32,136.067897 32,129.000821 C32,120.163897 24.8365128,113 15.9991795,113 L15.9991795,113 Z"/></g></g></g></svg>