<?xml version="1.0" encoding="UTF-8"?>
<svg width="32px" height="32px" viewBox="0 0 32 32" version="1.1" xmlns="http://www.w3.org/2000/svg" xmlns:xlink="http://www.w3.org/1999/xlink">
    <!-- Generator: Sketch 43.2 (39069) - http://www.bohemiancoding.com/sketch -->
    <title>icon-facebook</title>
    <desc>Created with Sketch.</desc>
    <defs></defs>
    <g id="Symbols" stroke="none" stroke-width="1" fill="none" fill-rule="evenodd">
        <g id="footer" transform="translate(-700.000000, -76.000000)" fill="#FFFFFF">
            <g id="Group-2" transform="translate(700.000000, 38.000000)">
                <path d="M30.2337778,38 L1.76622222,38 C0.790666667,38 0,38.7906667 0,39.7662222 L0,68.2342222 C0,69.2093333 0.790666667,70 1.76622222,70 L17.092,70 L17.092,57.608 L12.9217778,57.608 L12.9217778,52.7786667 L17.092,52.7786667 L17.092,49.2168889 C17.092,45.0835556 19.6164444,42.8333333 23.3035556,42.8333333 C25.0697778,42.8333333 26.5875556,42.9644444 27.0302222,43.0235556 L27.0302222,47.3431111 L24.4728889,47.3444444 C22.4675556,47.3444444 22.0795556,48.2973333 22.0795556,49.6955556 L22.0795556,52.7791111 L26.8617778,52.7791111 L26.2391111,57.6084444 L22.0795556,57.6084444 L22.0795556,70 L30.2342222,70 C31.2093333,70 32,69.2093333 32,68.2337778 L32,39.7662222 C32,38.7906667 31.2093333,38 30.2337778,38 L30.2337778,38 Z" id="icon-facebook"></path>
            </g>
        </g>
    </g>
</svg>