<?xml version="1.0" encoding="UTF-8"?>
<svg width="36px" height="29px" viewBox="0 0 36 29" version="1.1" xmlns="http://www.w3.org/2000/svg" xmlns:xlink="http://www.w3.org/1999/xlink">
    <!-- Generator: Sketch 43.2 (39069) - http://www.bohemiancoding.com/sketch -->
    <title>icon-twitter</title>
    <desc>Created with Sketch.</desc>
    <defs></defs>
    <g id="Symbols" stroke="none" stroke-width="1" fill="none" fill-rule="evenodd">
        <g id="footer" transform="translate(-753.000000, -78.000000)" fill="#F7F7F7">
            <g id="Group-2" transform="translate(700.000000, 38.000000)">
                <path d="M88.5398462,43.4190769 C87.2323077,43.9987692 85.8273846,44.3906154 84.3523077,44.5664615 C85.8573846,43.6641538 87.014,42.2352308 87.5576923,40.5335385 C86.1490769,41.3689231 84.5881538,41.9763077 82.928,42.3021538 C81.5983077,40.8861538 79.7032308,40 77.606,40 C73.5795385,40 70.3146154,43.264 70.3146154,47.2913846 C70.3146154,47.8623077 70.3792308,48.4193846 70.5038462,48.9533846 C64.4438462,48.6492308 59.0715385,45.7461538 55.4752308,41.3343077 C54.8475385,42.4115385 54.488,43.6646154 54.488,45.0003077 C54.488,47.53 55.7752308,49.7610769 57.7316923,51.0690769 C56.5367692,51.0307692 55.4124615,50.7026154 54.4293846,50.1570769 C54.4284615,50.1875385 54.4284615,50.2175385 54.4284615,50.2489231 C54.4284615,53.7806154 56.9415385,56.7275385 60.2766154,57.3981538 C59.6650769,57.5638462 59.0212308,57.6533846 58.3561538,57.6533846 C57.8858462,57.6533846 57.4293846,57.6081538 56.984,57.5227692 C57.9116923,60.4189231 60.6043077,62.5276923 63.7949231,62.5867692 C61.2993846,64.5418462 58.1558462,65.7081538 54.7395385,65.7081538 C54.1510769,65.7081538 53.5709231,65.674 53,65.6061538 C56.2266154,67.6747692 60.0592308,68.8812308 64.1766154,68.8812308 C77.588,68.8812308 84.9218462,57.7715385 84.9218462,48.1373846 C84.9218462,47.8216923 84.9144615,47.5064615 84.9006154,47.1930769 C86.3263077,46.1656923 87.5627692,44.8812308 88.5398462,43.4190769 L88.5398462,43.4190769 Z" id="icon-twitter"></path>
            </g>
        </g>
    </g>
</svg>