<?xml version="1.0" encoding="UTF-8"?>
<svg width="391px" height="20px" viewBox="0 0 391 20" version="1.1" xmlns="http://www.w3.org/2000/svg" xmlns:xlink="http://www.w3.org/1999/xlink">
    <!-- Generator: Sketch 43.2 (39069) - http://www.bohemiancoding.com/sketch -->
    <title>New Zealand Sign Lan</title>
    <desc>Created with Sketch.</desc>
    <defs></defs>
    <g id="Symbols" stroke="none" stroke-width="1" fill="none" fill-rule="evenodd">
        <g id="Artboard" transform="translate(-5.000000, -2.000000)" fill="#FFFFFF">
            <path d="M15.48,4 L18.08,4 L18.08,18 L15.54,18 L8.34,8.36 L8.34,18 L5.72,18 L5.72,4 L8.26,4 L15.48,13.66 L15.48,4 Z M29.73,8.68 C30.5900043,9.6533382 31.02,11.0199912 31.02,12.78 C31.02,13.1266684 31.0133334,13.3866658 31,13.56 L23.1,13.56 C23.2733342,14.3200038 23.6299973,14.9166645 24.17,15.35 C24.7100027,15.7833355 25.3733294,16 26.16,16 C26.7066694,16 27.2299975,15.8966677 27.73,15.69 C28.2300025,15.4833323 28.6666648,15.1866686 29.04,14.8 L30.44,16.26 C29.906664,16.8466696 29.2566705,17.2999984 28.49,17.62 C27.7233295,17.9400016 26.873338,18.1 25.94,18.1 C24.8466612,18.1 23.8833375,17.8733356 23.05,17.42 C22.2166625,16.9666644 21.5733356,16.3300041 21.12,15.51 C20.6666644,14.6899959 20.44,13.746672 20.44,12.68 C20.44,11.613328 20.6699977,10.6666708 21.13,9.84 C21.5900023,9.0133292 22.2333292,8.3700023 23.06,7.91 C23.8866708,7.4499977 24.8266614,7.22 25.88,7.22 C27.5866752,7.22 28.8699957,7.7066618 29.73,8.68 Z M28.64,11.82 C28.6133332,11.0333294 28.3533358,10.406669 27.86,9.94 C27.3666642,9.473331 26.7133374,9.24 25.9,9.24 C25.1399962,9.24 24.5033359,9.4699977 23.99,9.93 C23.4766641,10.3900023 23.1600006,11.019996 23.04,11.82 L28.64,11.82 Z M31.62,7.32 L34.3,7.3 L36.92,15.38 L39.46,7.3 L42.08,7.3 L44.66,15.38 L47.22,7.3 L49.84,7.3 L45.96,18 L43.3,18 L40.74,10.46 L38.2,18 L35.54,18 L31.62,7.32 Z M55.6,4 L67.2,4 L67.2,5.88 L58.96,15.66 L67.3,15.66 L67.3,18 L55.34,18 L55.34,16.1 L63.58,6.34 L55.58,6.34 L55.6,4 Z M77.93,8.68 C78.7900043,9.6533382 79.22,11.0199912 79.22,12.78 C79.22,13.1266684 79.2133334,13.3866658 79.2,13.56 L71.3,13.56 C71.4733342,14.3200038 71.8299973,14.9166645 72.37,15.35 C72.9100027,15.7833355 73.5733294,16 74.36,16 C74.9066694,16 75.4299975,15.8966677 75.93,15.69 C76.4300025,15.4833323 76.8666648,15.1866686 77.24,14.8 L78.64,16.26 C78.106664,16.8466696 77.4566705,17.2999984 76.69,17.62 C75.9233295,17.9400016 75.073338,18.1 74.14,18.1 C73.0466612,18.1 72.0833375,17.8733356 71.25,17.42 C70.4166625,16.9666644 69.7733356,16.3300041 69.32,15.51 C68.8666644,14.6899959 68.64,13.746672 68.64,12.68 C68.64,11.613328 68.8699977,10.6666708 69.33,9.84 C69.7900023,9.0133292 70.4333292,8.3700023 71.26,7.91 C72.0866708,7.4499977 73.0266614,7.22 74.08,7.22 C75.7866752,7.22 77.0699957,7.7066618 77.93,8.68 Z M76.84,11.82 C76.8133332,11.0333294 76.5533358,10.406669 76.06,9.94 C75.5666642,9.473331 74.9133374,9.24 74.1,9.24 C73.3399962,9.24 72.7033359,9.4699977 72.19,9.93 C71.6766641,10.3900023 71.3600006,11.019996 71.24,11.82 L76.84,11.82 Z M87.78,18 L87.78,16.7 C87.4066648,17.166669 86.9266696,17.5199988 86.34,17.76 C85.7533304,18.0000012 85.0800038,18.12 84.32,18.12 C83.5733296,18.12 82.9166695,17.9766681 82.35,17.69 C81.7833305,17.4033319 81.3466682,17.0066692 81.04,16.5 C80.7333318,15.9933308 80.58,15.4266698 80.58,14.8 C80.58,13.799995 80.9333298,13.0166695 81.64,12.45 C82.3466702,11.8833305 83.3466602,11.5933334 84.64,11.58 L87.76,11.58 L87.76,11.3 C87.76,10.6733302 87.5533354,10.1866684 87.14,9.84 C86.7266646,9.4933316 86.1266706,9.32 85.34,9.32 C84.3266616,9.32 83.2666722,9.65333 82.16,10.32 L81.22,8.52 C82.0600042,8.053331 82.8233299,7.7166677 83.51,7.51 C84.1966701,7.3033323 84.9999954,7.2 85.92,7.2 C87.3066736,7.2 88.3833295,7.53333 89.15,8.2 C89.9166705,8.86667 90.3066666,9.799994 90.32,11 L90.34,18 L87.78,18 Z M86.86,15.59 C87.393336,15.2366649 87.693333,14.8000026 87.76,14.28 L87.76,13.32 L85.06,13.32 C84.3666632,13.32 83.8566683,13.4233323 83.53,13.63 C83.2033317,13.8366677 83.04,14.173331 83.04,14.64 C83.04,15.0933356 83.2099983,15.453332 83.55,15.72 C83.8900017,15.986668 84.3533304,16.12 84.94,16.12 C85.6866704,16.12 86.326664,15.9433351 86.86,15.59 Z M93.36,3.16 L95.96,3.16 L95.96,18 L93.36,18 L93.36,3.16 Z M105.62,18 L105.62,16.7 C105.246665,17.166669 104.76667,17.5199988 104.18,17.76 C103.59333,18.0000012 102.920004,18.12 102.16,18.12 C101.41333,18.12 100.75667,17.9766681 100.19,17.69 C99.6233305,17.4033319 99.1866682,17.0066692 98.88,16.5 C98.5733318,15.9933308 98.42,15.4266698 98.42,14.8 C98.42,13.799995 98.7733298,13.0166695 99.48,12.45 C100.18667,11.8833305 101.18666,11.5933334 102.48,11.58 L105.6,11.58 L105.6,11.3 C105.6,10.6733302 105.393335,10.1866684 104.98,9.84 C104.566665,9.4933316 103.966671,9.32 103.18,9.32 C102.166662,9.32 101.106672,9.65333 100,10.32 L99.06,8.52 C99.9000042,8.053331 100.66333,7.7166677 101.35,7.51 C102.03667,7.3033323 102.839995,7.2 103.76,7.2 C105.146674,7.2 106.22333,7.53333 106.99,8.2 C107.756671,8.86667 108.146667,9.799994 108.16,11 L108.18,18 L105.62,18 Z M104.7,15.59 C105.233336,15.2366649 105.533333,14.8000026 105.6,14.28 L105.6,13.32 L102.9,13.32 C102.206663,13.32 101.696668,13.4233323 101.37,13.63 C101.043332,13.8366677 100.88,14.173331 100.88,14.64 C100.88,15.0933356 101.049998,15.453332 101.39,15.72 C101.730002,15.986668 102.19333,16.12 102.78,16.12 C103.52667,16.12 104.166664,15.9433351 104.7,15.59 Z M120.44,8.31 C121.14667,9.0500037 121.5,10.053327 121.5,11.32 L121.5,18 L118.88,18 L118.88,12.08 C118.88,11.3333296 118.666669,10.7433355 118.24,10.31 C117.813331,9.8766645 117.233337,9.66 116.5,9.66 C115.633329,9.6733334 114.950002,9.9666638 114.45,10.54 C113.949998,11.1133362 113.7,11.8466622 113.7,12.74 L113.7,18 L111.1,18 L111.1,7.3 L113.7,7.3 L113.7,9.3 C114.433337,7.9266598 115.713324,7.2266668 117.54,7.2 C118.766673,7.2 119.73333,7.5699963 120.44,8.31 Z M134.74,3.16 L134.74,18 L132.14,18 L132.14,16.28 C131.753331,16.880003 131.25667,17.3366651 130.65,17.65 C130.04333,17.9633349 129.340004,18.12 128.54,18.12 C127.526662,18.12 126.636671,17.8900023 125.87,17.43 C125.10333,16.9699977 124.506669,16.3233375 124.08,15.49 C123.653331,14.6566625 123.44,13.7000054 123.44,12.62 C123.44,11.553328 123.649998,10.6100041 124.07,9.79 C124.490002,8.9699959 125.08333,8.3333356 125.85,7.88 C126.616671,7.4266644 127.493328,7.2 128.48,7.2 C129.293337,7.2 130.006664,7.3599984 130.62,7.68 C131.233336,8.0000016 131.739998,8.459997 132.14,9.06 L132.14,3.16 L134.74,3.16 Z M131.29,15.03 C131.85667,14.4233303 132.14,13.6400048 132.14,12.68 C132.14,11.7199952 131.85667,10.9366697 131.29,10.33 C130.723331,9.7233303 129.993338,9.42 129.1,9.42 C128.206662,9.42 127.480003,9.7233303 126.92,10.33 C126.359997,10.9366697 126.073333,11.7199952 126.06,12.68 C126.073333,13.6400048 126.359997,14.4233303 126.92,15.03 C127.480003,15.6366697 128.206662,15.94 129.1,15.94 C129.993338,15.94 130.723331,15.6366697 131.29,15.03 Z M149.67,6.58 C148.916663,6.3399988 148.253336,6.22 147.68,6.22 C147.039997,6.22 146.533335,6.3399988 146.16,6.58 C145.786665,6.8200012 145.6,7.1533312 145.6,7.58 C145.6,7.9666686 145.729999,8.2899987 145.99,8.55 C146.250001,8.8100013 146.576665,9.0233325 146.97,9.19 C147.363335,9.3566675 147.899997,9.539999 148.58,9.74 C149.526671,10.0200014 150.30333,10.2999986 150.91,10.58 C151.51667,10.8600014 152.033331,11.2733306 152.46,11.82 C152.886669,12.3666694 153.1,13.0866622 153.1,13.98 C153.1,14.8333376 152.870002,15.5766635 152.41,16.21 C151.949998,16.8433365 151.316671,17.326665 150.51,17.66 C149.703329,17.993335 148.780005,18.16 147.74,18.16 C146.646661,18.16 145.580005,17.9566687 144.54,17.55 C143.499995,17.1433313 142.593337,16.6000034 141.82,15.92 L142.94,13.64 C143.64667,14.2933366 144.439996,14.8066648 145.32,15.18 C146.200004,15.5533352 147.019996,15.74 147.78,15.74 C148.52667,15.74 149.113331,15.5966681 149.54,15.31 C149.966669,15.0233319 150.18,14.6333358 150.18,14.14 C150.18,13.739998 150.050001,13.4100013 149.79,13.15 C149.529999,12.8899987 149.200002,12.6800008 148.8,12.52 C148.399998,12.3599992 147.853337,12.180001 147.16,11.98 C146.213329,11.6999986 145.440003,11.426668 144.84,11.16 C144.239997,10.893332 143.726669,10.4900027 143.3,9.95 C142.873331,9.4099973 142.66,8.7000044 142.66,7.82 C142.66,7.0066626 142.876665,6.2966697 143.31,5.69 C143.743336,5.0833303 144.356663,4.613335 145.15,4.28 C145.943337,3.946665 146.859995,3.78 147.9,3.78 C148.806671,3.78 149.703329,3.913332 150.59,4.18 C151.476671,4.446668 152.266663,4.8066644 152.96,5.26 L151.88,7.6 C151.159996,7.1599978 150.423337,6.8200012 149.67,6.58 Z M155.54,7.3 L158.14,7.3 L158.14,18 L155.54,18 L155.54,7.3 Z M157.88,3.14 C158.160001,3.4333348 158.3,3.8066644 158.3,4.26 C158.3,4.7000022 158.160001,5.0666652 157.88,5.36 C157.599999,5.6533348 157.246669,5.8 156.82,5.8 C156.393331,5.8 156.040001,5.6533348 155.76,5.36 C155.479999,5.0666652 155.34,4.7000022 155.34,4.26 C155.34,3.8066644 155.479999,3.4333348 155.76,3.14 C156.040001,2.8466652 156.393331,2.7 156.82,2.7 C157.246669,2.7 157.599999,2.8466652 157.88,3.14 Z M171.14,7.3 L171.14,16.98 C171.14,17.9933384 170.910002,18.8766629 170.45,19.63 C169.989998,20.3833371 169.336671,20.9633313 168.49,21.37 C167.643329,21.7766687 166.660006,21.98 165.54,21.98 C163.913325,21.98 162.406674,21.5066714 161.02,20.56 L162.06,18.68 C163.073338,19.4266704 164.186661,19.8 165.4,19.8 C166.360005,19.8 167.123331,19.5533358 167.69,19.06 C168.25667,18.5666642 168.54,17.8933376 168.54,17.04 L168.54,15.78 C168.179998,16.3266694 167.713336,16.7433319 167.14,17.03 C166.566664,17.3166681 165.900004,17.46 165.14,17.46 C164.206662,17.46 163.380004,17.2433355 162.66,16.81 C161.939996,16.3766645 161.380002,15.7700039 160.98,14.99 C160.579998,14.2099961 160.38,13.3133384 160.38,12.3 C160.38,11.299995 160.579998,10.4166705 160.98,9.65 C161.380002,8.8833295 161.939996,8.2866688 162.66,7.86 C163.380004,7.4333312 164.206662,7.22 165.14,7.22 C165.88667,7.22 166.549997,7.3666652 167.13,7.66 C167.710003,7.9533348 168.179998,8.366664 168.54,8.9 L168.54,7.3 L171.14,7.3 Z M167.75,14.57 C168.276669,14.0033305 168.54,13.2666712 168.54,12.36 C168.54,11.4533288 168.276669,10.7166695 167.75,10.15 C167.223331,9.5833305 166.540004,9.3 165.7,9.3 C164.859996,9.3 164.176669,9.5866638 163.65,10.16 C163.123331,10.7333362 162.853333,11.4666622 162.84,12.36 C162.853333,13.2666712 163.123331,14.0033305 163.65,14.57 C164.176669,15.1366695 164.859996,15.42 165.7,15.42 C166.540004,15.42 167.223331,15.1366695 167.75,14.57 Z M183.54,8.31 C184.24667,9.0500037 184.6,10.053327 184.6,11.32 L184.6,18 L181.98,18 L181.98,12.08 C181.98,11.3333296 181.766669,10.7433355 181.34,10.31 C180.913331,9.8766645 180.333337,9.66 179.6,9.66 C178.733329,9.6733334 178.050003,9.9666638 177.55,10.54 C177.049998,11.1133362 176.8,11.8466622 176.8,12.74 L176.8,18 L174.2,18 L174.2,7.3 L176.8,7.3 L176.8,9.3 C177.533337,7.9266598 178.813324,7.2266668 180.64,7.2 C181.866673,7.2 182.83333,7.5699963 183.54,8.31 Z M192.52,4 L195.2,4 L195.2,15.58 L201.24,15.58 L201.24,18 L192.52,18 L192.52,4 Z M209.56,18 L209.56,16.7 C209.186665,17.166669 208.70667,17.5199988 208.12,17.76 C207.53333,18.0000012 206.860004,18.12 206.1,18.12 C205.35333,18.12 204.69667,17.9766681 204.13,17.69 C203.563331,17.4033319 203.126668,17.0066692 202.82,16.5 C202.513332,15.9933308 202.36,15.4266698 202.36,14.8 C202.36,13.799995 202.71333,13.0166695 203.42,12.45 C204.12667,11.8833305 205.12666,11.5933334 206.42,11.58 L209.54,11.58 L209.54,11.3 C209.54,10.6733302 209.333335,10.1866684 208.92,9.84 C208.506665,9.4933316 207.906671,9.32 207.12,9.32 C206.106662,9.32 205.046672,9.65333 203.94,10.32 L203,8.52 C203.840004,8.053331 204.60333,7.7166677 205.29,7.51 C205.97667,7.3033323 206.779995,7.2 207.7,7.2 C209.086674,7.2 210.16333,7.53333 210.93,8.2 C211.696671,8.86667 212.086667,9.799994 212.1,11 L212.12,18 L209.56,18 Z M208.64,15.59 C209.173336,15.2366649 209.473333,14.8000026 209.54,14.28 L209.54,13.32 L206.84,13.32 C206.146663,13.32 205.636668,13.4233323 205.31,13.63 C204.983332,13.8366677 204.82,14.173331 204.82,14.64 C204.82,15.0933356 204.989998,15.453332 205.33,15.72 C205.670002,15.986668 206.13333,16.12 206.72,16.12 C207.46667,16.12 208.106664,15.9433351 208.64,15.59 Z M224.38,8.31 C225.08667,9.0500037 225.44,10.053327 225.44,11.32 L225.44,18 L222.82,18 L222.82,12.08 C222.82,11.3333296 222.606669,10.7433355 222.18,10.31 C221.753331,9.8766645 221.173337,9.66 220.44,9.66 C219.573329,9.6733334 218.890003,9.9666638 218.39,10.54 C217.889998,11.1133362 217.64,11.8466622 217.64,12.74 L217.64,18 L215.04,18 L215.04,7.3 L217.64,7.3 L217.64,9.3 C218.373337,7.9266598 219.653324,7.2266668 221.48,7.2 C222.706673,7.2 223.67333,7.5699963 224.38,8.31 Z M238.14,7.3 L238.14,16.98 C238.14,17.9933384 237.910002,18.8766629 237.45,19.63 C236.989998,20.3833371 236.336671,20.9633313 235.49,21.37 C234.643329,21.7766687 233.660006,21.98 232.54,21.98 C230.913325,21.98 229.406674,21.5066714 228.02,20.56 L229.06,18.68 C230.073338,19.4266704 231.186661,19.8 232.4,19.8 C233.360005,19.8 234.123331,19.5533358 234.69,19.06 C235.25667,18.5666642 235.54,17.8933376 235.54,17.04 L235.54,15.78 C235.179998,16.3266694 234.713336,16.7433319 234.14,17.03 C233.566664,17.3166681 232.900004,17.46 232.14,17.46 C231.206662,17.46 230.380004,17.2433355 229.66,16.81 C228.939996,16.3766645 228.380002,15.7700039 227.98,14.99 C227.579998,14.2099961 227.38,13.3133384 227.38,12.3 C227.38,11.299995 227.579998,10.4166705 227.98,9.65 C228.380002,8.8833295 228.939996,8.2866688 229.66,7.86 C230.380004,7.4333312 231.206662,7.22 232.14,7.22 C232.88667,7.22 233.549997,7.3666652 234.13,7.66 C234.710003,7.9533348 235.179998,8.366664 235.54,8.9 L235.54,7.3 L238.14,7.3 Z M234.75,14.57 C235.276669,14.0033305 235.54,13.2666712 235.54,12.36 C235.54,11.4533288 235.276669,10.7166695 234.75,10.15 C234.223331,9.5833305 233.540004,9.3 232.7,9.3 C231.859996,9.3 231.176669,9.5866638 230.65,10.16 C230.123331,10.7333362 229.853333,11.4666622 229.84,12.36 C229.853333,13.2666712 230.123331,14.0033305 230.65,14.57 C231.176669,15.1366695 231.859996,15.42 232.7,15.42 C233.540004,15.42 234.223331,15.1366695 234.75,14.57 Z M251.08,7.3 L251.08,18 L248.46,18 L248.46,16.02 C247.739996,17.4066736 246.500009,18.1 244.74,18.1 C243.539994,18.1 242.593337,17.733337 241.9,17 C241.206663,16.266663 240.86,15.266673 240.86,14 L240.86,7.3 L243.48,7.3 L243.48,13.24 C243.48,13.9866704 243.683331,14.5733312 244.09,15 C244.496669,15.4266688 245.059996,15.64 245.78,15.64 C246.606671,15.6266666 247.259998,15.3333362 247.74,14.76 C248.220002,14.1866638 248.46,13.4600044 248.46,12.58 L248.46,7.3 L251.08,7.3 Z M260.64,18 L260.64,16.7 C260.266665,17.166669 259.78667,17.5199988 259.2,17.76 C258.61333,18.0000012 257.940004,18.12 257.18,18.12 C256.43333,18.12 255.77667,17.9766681 255.21,17.69 C254.643331,17.4033319 254.206668,17.0066692 253.9,16.5 C253.593332,15.9933308 253.44,15.4266698 253.44,14.8 C253.44,13.799995 253.79333,13.0166695 254.5,12.45 C255.20667,11.8833305 256.20666,11.5933334 257.5,11.58 L260.62,11.58 L260.62,11.3 C260.62,10.6733302 260.413335,10.1866684 260,9.84 C259.586665,9.4933316 258.986671,9.32 258.2,9.32 C257.186662,9.32 256.126672,9.65333 255.02,10.32 L254.08,8.52 C254.920004,8.053331 255.68333,7.7166677 256.37,7.51 C257.05667,7.3033323 257.859995,7.2 258.78,7.2 C260.166674,7.2 261.24333,7.53333 262.01,8.2 C262.776671,8.86667 263.166667,9.799994 263.18,11 L263.2,18 L260.64,18 Z M259.72,15.59 C260.253336,15.2366649 260.553333,14.8000026 260.62,14.28 L260.62,13.32 L257.92,13.32 C257.226663,13.32 256.716668,13.4233323 256.39,13.63 C256.063332,13.8366677 255.9,14.173331 255.9,14.64 C255.9,15.0933356 256.069998,15.453332 256.41,15.72 C256.750002,15.986668 257.21333,16.12 257.8,16.12 C258.54667,16.12 259.186664,15.9433351 259.72,15.59 Z M275.9,7.3 L275.9,16.98 C275.9,17.9933384 275.670002,18.8766629 275.21,19.63 C274.749998,20.3833371 274.096671,20.9633313 273.25,21.37 C272.403329,21.7766687 271.420006,21.98 270.3,21.98 C268.673325,21.98 267.166674,21.5066714 265.78,20.56 L266.82,18.68 C267.833338,19.4266704 268.946661,19.8 270.16,19.8 C271.120005,19.8 271.88333,19.5533358 272.45,19.06 C273.01667,18.5666642 273.3,17.8933376 273.3,17.04 L273.3,15.78 C272.939998,16.3266694 272.473336,16.7433319 271.9,17.03 C271.326664,17.3166681 270.660004,17.46 269.9,17.46 C268.966662,17.46 268.140004,17.2433355 267.42,16.81 C266.699996,16.3766645 266.140002,15.7700039 265.74,14.99 C265.339998,14.2099961 265.14,13.3133384 265.14,12.3 C265.14,11.299995 265.339998,10.4166705 265.74,9.65 C266.140002,8.8833295 266.699996,8.2866688 267.42,7.86 C268.140004,7.4333312 268.966662,7.22 269.9,7.22 C270.64667,7.22 271.309997,7.3666652 271.89,7.66 C272.470003,7.9533348 272.939998,8.366664 273.3,8.9 L273.3,7.3 L275.9,7.3 Z M272.51,14.57 C273.036669,14.0033305 273.3,13.2666712 273.3,12.36 C273.3,11.4533288 273.036669,10.7166695 272.51,10.15 C271.983331,9.5833305 271.300004,9.3 270.46,9.3 C269.619996,9.3 268.936669,9.5866638 268.41,10.16 C267.883331,10.7333362 267.613333,11.4666622 267.6,12.36 C267.613333,13.2666712 267.883331,14.0033305 268.41,14.57 C268.936669,15.1366695 269.619996,15.42 270.46,15.42 C271.300004,15.42 271.983331,15.1366695 272.51,14.57 Z M287.27,8.68 C288.130004,9.6533382 288.56,11.0199912 288.56,12.78 C288.56,13.1266684 288.553333,13.3866658 288.54,13.56 L280.64,13.56 C280.813334,14.3200038 281.169997,14.9166645 281.71,15.35 C282.250003,15.7833355 282.913329,16 283.7,16 C284.246669,16 284.769997,15.8966677 285.27,15.69 C285.770002,15.4833323 286.206665,15.1866686 286.58,14.8 L287.98,16.26 C287.446664,16.8466696 286.79667,17.2999984 286.03,17.62 C285.263329,17.9400016 284.413338,18.1 283.48,18.1 C282.386661,18.1 281.423337,17.8733356 280.59,17.42 C279.756662,16.9666644 279.113336,16.3300041 278.66,15.51 C278.206664,14.6899959 277.98,13.746672 277.98,12.68 C277.98,11.613328 278.209998,10.6666708 278.67,9.84 C279.130002,9.0133292 279.773329,8.3700023 280.6,7.91 C281.426671,7.4499977 282.366661,7.22 283.42,7.22 C285.126675,7.22 286.409996,7.7066618 287.27,8.68 Z M286.18,11.82 C286.153333,11.0333294 285.893336,10.406669 285.4,9.94 C284.906664,9.473331 284.253337,9.24 283.44,9.24 C282.679996,9.24 282.043336,9.4699977 281.53,9.93 C281.016664,10.3900023 280.700001,11.019996 280.58,11.82 L286.18,11.82 Z M297.45,17.49 C296.76333,17.0966647 296.230002,16.5466702 295.85,15.84 C295.469998,15.1333298 295.28,14.3266712 295.28,13.42 C295.28,12.3133278 295.533331,11.3033379 296.04,10.39 C296.546669,9.4766621 297.233329,8.7566693 298.1,8.23 C298.966671,7.7033307 299.926661,7.44 300.98,7.44 C302.033339,7.44 302.92333,7.6999974 303.65,8.22 C304.37667,8.7400026 304.859999,9.4599954 305.1,10.38 L306.56,3.16 L307.9,3.16 L304.94,18 L303.6,18 L304.02,15.98 C303.513331,16.64667 302.893337,17.1633315 302.16,17.53 C301.426663,17.8966685 300.640004,18.08 299.8,18.08 C298.919996,18.08 298.13667,17.8833353 297.45,17.49 Z M302.44,16.31 C303.120003,15.8899979 303.656665,15.3200036 304.05,14.6 C304.443335,13.8799964 304.64,13.0933376 304.64,12.24 C304.64,11.173328 304.313337,10.30667 303.66,9.64 C303.006663,8.97333 302.153339,8.64 301.1,8.64 C300.286663,8.64 299.540003,8.8499979 298.86,9.27 C298.179997,9.6900021 297.640002,10.2599964 297.24,10.98 C296.839998,11.7000036 296.64,12.4866624 296.64,13.34 C296.64,14.406672 296.969997,15.27333 297.63,15.94 C298.290003,16.60667 299.153328,16.94 300.22,16.94 C301.020004,16.94 301.759997,16.7300021 302.44,16.31 Z M312.38,7.52 L310.3,18 L308.96,18 L311.04,7.52 L312.38,7.52 Z M313.03,3.77 C313.170001,3.9233341 313.24,4.1133322 313.24,4.34 C313.24,4.6466682 313.126668,4.9099989 312.9,5.13 C312.673332,5.3500011 312.406668,5.46 312.1,5.46 C311.886666,5.46 311.706667,5.3833341 311.56,5.23 C311.413333,5.0766659 311.34,4.8866678 311.34,4.66 C311.34,4.3533318 311.453332,4.0900011 311.68,3.87 C311.906668,3.6499989 312.173332,3.54 312.48,3.54 C312.706668,3.54 312.889999,3.6166659 313.03,3.77 Z M316.44,17.44 C315.73333,17.039998 315.183335,16.4800036 314.79,15.76 C314.396665,15.0399964 314.2,14.213338 314.2,13.28 C314.2,12.1733278 314.453331,11.1766711 314.96,10.29 C315.466669,9.4033289 316.156662,8.7100025 317.03,8.21 C317.903338,7.7099975 318.873328,7.46 319.94,7.46 C320.740004,7.46 321.466663,7.593332 322.12,7.86 C322.773337,8.126668 323.313331,8.4999976 323.74,8.98 L322.9,9.9 C322.113329,9.0733292 321.106673,8.66 319.88,8.66 C319.079996,8.66 318.34667,8.8533314 317.68,9.24 C317.01333,9.6266686 316.490002,10.1633299 316.11,10.85 C315.729998,11.5366701 315.54,12.313329 315.54,13.18 C315.54,14.2733388 315.86333,15.1599966 316.51,15.84 C317.15667,16.5200034 318.006661,16.86 319.06,16.86 C319.753337,16.86 320.39333,16.7433345 320.98,16.51 C321.56667,16.2766655 322.073331,15.9333356 322.5,15.48 L323.2,16.28 C322.666664,16.8400028 322.033337,17.2733318 321.3,17.58 C320.566663,17.8866682 319.760004,18.04 318.88,18.04 C317.959995,18.04 317.14667,17.840002 316.44,17.44 Z M328.14,14.94 C328.086666,15.1933346 328.06,15.4399988 328.06,15.68 C328.06,16.080002 328.149999,16.3699991 328.33,16.55 C328.510001,16.7300009 328.786665,16.82 329.16,16.82 C329.760003,16.7933332 330.379997,16.5933352 331.02,16.22 L331.3,17.3 C330.499996,17.7800024 329.693337,18.0333332 328.88,18.06 C328.199997,18.06 327.666669,17.8800018 327.28,17.52 C326.893331,17.1599982 326.7,16.6333368 326.7,15.94 C326.7,15.6999988 326.733333,15.4000018 326.8,15.04 L328.04,8.86 L326.52,8.86 L326.72,7.8 L328.24,7.8 L328.78,5.12 L330.12,5.12 L329.58,7.8 L332.96,7.8 L332.76,8.86 L329.36,8.86 L328.14,14.94 Z M336.98,7.52 L334.9,18 L333.56,18 L335.64,7.52 L336.98,7.52 Z M337.63,3.77 C337.770001,3.9233341 337.84,4.1133322 337.84,4.34 C337.84,4.6466682 337.726668,4.9099989 337.5,5.13 C337.273332,5.3500011 337.006668,5.46 336.7,5.46 C336.486666,5.46 336.306667,5.3833341 336.16,5.23 C336.013333,5.0766659 335.94,4.8866678 335.94,4.66 C335.94,4.3533318 336.053332,4.0900011 336.28,3.87 C336.506668,3.6499989 336.773332,3.54 337.08,3.54 C337.306668,3.54 337.489999,3.6166659 337.63,3.77 Z M347.15,8.07 C347.87667,8.4766687 348.439998,9.0399964 348.84,9.76 C349.240002,10.4800036 349.44,11.306662 349.44,12.24 C349.44,13.3466722 349.183336,14.3399956 348.67,15.22 C348.156664,16.1000044 347.453338,16.7899975 346.56,17.29 C345.666662,17.7900025 344.673339,18.04 343.58,18.04 C342.633329,18.04 341.800004,17.8366687 341.08,17.43 C340.359996,17.0233313 339.800002,16.4600036 339.4,15.74 C338.999998,15.0199964 338.8,14.193338 338.8,13.26 C338.8,12.1533278 339.056664,11.1600044 339.57,10.28 C340.083336,9.3999956 340.783329,8.7100025 341.67,8.21 C342.556671,7.7099975 343.546661,7.46 344.64,7.46 C345.586671,7.46 346.42333,7.6633313 347.15,8.07 Z M342.3,9.23 C341.63333,9.6233353 341.110002,10.1666632 340.73,10.86 C340.349998,11.5533368 340.16,12.333329 340.16,13.2 C340.16,14.2933388 340.48333,15.1799966 341.13,15.86 C341.77667,16.5400034 342.633328,16.88 343.7,16.88 C344.513337,16.88 345.25333,16.6866686 345.92,16.3 C346.58667,15.9133314 347.109998,15.3733368 347.49,14.68 C347.870002,13.9866632 348.06,13.2000044 348.06,12.32 C348.06,11.2266612 347.73667,10.3400034 347.09,9.66 C346.44333,8.9799966 345.586672,8.64 344.52,8.64 C343.706663,8.64 342.96667,8.8366647 342.3,9.23 Z M361.15,8.29 C361.79667,8.8566695 362.12,9.6466616 362.12,10.66 C362.12,11.0066684 362.08,11.3733314 362,11.76 L360.76,18 L359.4,18 L360.62,11.9 C360.673334,11.633332 360.7,11.3533348 360.7,11.06 C360.7,10.2999962 360.470002,9.7100021 360.01,9.29 C359.549998,8.8699979 358.893338,8.66 358.04,8.66 C356.959995,8.6733334 356.026671,9.0166633 355.24,9.69 C354.453329,10.3633367 353.940001,11.2799942 353.7,12.44 L352.6,18 L351.26,18 L353.32,7.52 L354.68,7.52 L354.24,9.72 C354.706669,8.986663 355.296663,8.4266686 356.01,8.04 C356.723337,7.6533314 357.533329,7.4533334 358.44,7.44 C359.600006,7.44 360.50333,7.7233305 361.15,8.29 Z M366.47,17.49 C365.78333,17.0966647 365.250002,16.5466702 364.87,15.84 C364.489998,15.1333298 364.3,14.3266712 364.3,13.42 C364.3,12.3133278 364.553331,11.3033379 365.06,10.39 C365.566669,9.4766621 366.253329,8.7566693 367.12,8.23 C367.986671,7.7033307 368.946661,7.44 370,7.44 C371.053339,7.44 371.94333,7.6999974 372.67,8.22 C373.39667,8.7400026 373.879999,9.4599954 374.12,10.38 L374.7,7.52 L376.04,7.52 L373.96,18 L372.62,18 L373.04,15.98 C372.533331,16.64667 371.913337,17.1633315 371.18,17.53 C370.446663,17.8966685 369.660004,18.08 368.82,18.08 C367.939996,18.08 367.15667,17.8833353 366.47,17.49 Z M371.46,16.31 C372.140003,15.8899979 372.676665,15.3200036 373.07,14.6 C373.463335,13.8799964 373.66,13.0933376 373.66,12.24 C373.66,11.173328 373.333337,10.30667 372.68,9.64 C372.026663,8.97333 371.173339,8.64 370.12,8.64 C369.306663,8.64 368.560003,8.8499979 367.88,9.27 C367.199997,9.6900021 366.660002,10.2599964 366.26,10.98 C365.859998,11.7000036 365.66,12.4866624 365.66,13.34 C365.66,14.406672 365.989997,15.27333 366.65,15.94 C367.310003,16.60667 368.173328,16.94 369.24,16.94 C370.040004,16.94 370.779997,16.7300021 371.46,16.31 Z M382.68,8.09 C383.400004,7.6833313 384.206662,7.4733334 385.1,7.46 L384.94,8.76 C383.846661,8.7466666 382.890004,9.0699967 382.07,9.73 C381.249996,10.3900033 380.673335,11.2799944 380.34,12.4 L379.22,18 L377.88,18 L379.96,7.52 L381.32,7.52 L380.84,9.86 C381.346669,9.0866628 381.959996,8.4966687 382.68,8.09 Z M395.3,7.52 L388.06,19.56 C387.593331,20.3466706 387.060003,20.939998 386.46,21.34 C385.859997,21.740002 385.233337,21.94 384.58,21.94 C383.766663,21.94 383.06667,21.6866692 382.48,21.18 L383.2,20.18 C383.573335,20.4866682 384.033331,20.64 384.58,20.64 C385.473338,20.64 386.286663,20.0800056 387.02,18.96 L387.68,17.94 L385.42,7.52 L386.82,7.52 L388.6,16.54 L393.88,7.52 L395.3,7.52 Z" id="New-Zealand-Sign-Lan"></path>
        </g>
    </g>
</svg>