<?xml version="1.0" encoding="UTF-8"?>
<svg width="158px" height="19px" viewBox="0 0 158 19" version="1.1" xmlns="http://www.w3.org/2000/svg" xmlns:xlink="http://www.w3.org/1999/xlink">
    <!-- Generator: Sketch 43.2 (39069) - http://www.bohemiancoding.com/sketch -->
    <title>NZSL dictionary</title>
    <desc>Created with Sketch.</desc>
    <defs></defs>
    <g id="Symbols" stroke="none" stroke-width="1" fill="none" fill-rule="evenodd">
        <g id="Artboard-Copy" transform="translate(-5.000000, -3.000000)" fill="#FFFFFF">
            <path d="M15.48,4 L18.08,4 L18.08,18 L15.54,18 L8.34,8.36 L8.34,18 L5.72,18 L5.72,4 L8.26,4 L15.48,13.66 L15.48,4 Z M20.76,4 L32.36,4 L32.36,5.88 L24.12,15.66 L32.46,15.66 L32.46,18 L20.5,18 L20.5,16.1 L28.74,6.34 L20.74,6.34 L20.76,4 Z M41.47,6.58 C40.7166629,6.3399988 40.0533362,6.22 39.48,6.22 C38.8399968,6.22 38.3333352,6.3399988 37.96,6.58 C37.5866648,6.8200012 37.4,7.1533312 37.4,7.58 C37.4,7.9666686 37.5299987,8.2899987 37.79,8.55 C38.0500013,8.8100013 38.3766647,9.0233325 38.77,9.19 C39.1633353,9.3566675 39.6999966,9.539999 40.38,9.74 C41.3266714,10.0200014 42.1033303,10.2999986 42.71,10.58 C43.3166697,10.8600014 43.8333312,11.2733306 44.26,11.82 C44.6866688,12.3666694 44.9,13.0866622 44.9,13.98 C44.9,14.8333376 44.6700023,15.5766635 44.21,16.21 C43.7499977,16.8433365 43.1166707,17.326665 42.31,17.66 C41.5033293,17.993335 40.5800052,18.16 39.54,18.16 C38.4466612,18.16 37.3800052,17.9566687 36.34,17.55 C35.2999948,17.1433313 34.3933372,16.6000034 33.62,15.92 L34.74,13.64 C35.4466702,14.2933366 36.2399956,14.8066648 37.12,15.18 C38.0000044,15.5533352 38.8199962,15.74 39.58,15.74 C40.3266704,15.74 40.9133312,15.5966681 41.34,15.31 C41.7666688,15.0233319 41.98,14.6333358 41.98,14.14 C41.98,13.739998 41.8500013,13.4100013 41.59,13.15 C41.3299987,12.8899987 41.000002,12.6800008 40.6,12.52 C40.199998,12.3599992 39.6533368,12.180001 38.96,11.98 C38.0133286,11.6999986 37.240003,11.426668 36.64,11.16 C36.039997,10.893332 35.5266688,10.4900027 35.1,9.95 C34.6733312,9.4099973 34.46,8.7000044 34.46,7.82 C34.46,7.0066626 34.6766645,6.2966697 35.11,5.69 C35.5433355,5.0833303 36.1566627,4.613335 36.95,4.28 C37.7433373,3.946665 38.6599948,3.78 39.7,3.78 C40.6066712,3.78 41.5033289,3.913332 42.39,4.18 C43.2766711,4.446668 44.0666632,4.8066644 44.76,5.26 L43.68,7.6 C42.9599964,7.1599978 42.2233371,6.8200012 41.47,6.58 Z M47.44,4 L50.12,4 L50.12,15.58 L56.16,15.58 L56.16,18 L47.44,18 L47.44,4 Z M64.81,17.49 C64.1233299,17.0966647 63.5900019,16.5466702 63.21,15.84 C62.8299981,15.1333298 62.64,14.3266712 62.64,13.42 C62.64,12.3133278 62.8933308,11.3033379 63.4,10.39 C63.9066692,9.4766621 64.593329,8.7566693 65.46,8.23 C66.326671,7.7033307 67.2866614,7.44 68.34,7.44 C69.3933386,7.44 70.2833297,7.6999974 71.01,8.22 C71.7366703,8.7400026 72.2199988,9.4599954 72.46,10.38 L73.92,3.16 L75.26,3.16 L72.3,18 L70.96,18 L71.38,15.98 C70.8733308,16.64667 70.253337,17.1633315 69.52,17.53 C68.786663,17.8966685 68.0000042,18.08 67.16,18.08 C66.2799956,18.08 65.4966701,17.8833353 64.81,17.49 Z M69.8,16.31 C70.4800034,15.8899979 71.0166647,15.3200036 71.41,14.6 C71.8033353,13.8799964 72,13.0933376 72,12.24 C72,11.173328 71.6733366,10.30667 71.02,9.64 C70.3666634,8.97333 69.5133386,8.64 68.46,8.64 C67.6466626,8.64 66.9000034,8.8499979 66.22,9.27 C65.5399966,9.6900021 65.000002,10.2599964 64.6,10.98 C64.199998,11.7000036 64,12.4866624 64,13.34 C64,14.406672 64.3299967,15.27333 64.99,15.94 C65.6500033,16.60667 66.513328,16.94 67.58,16.94 C68.380004,16.94 69.1199966,16.7300021 69.8,16.31 Z M79.74,7.52 L77.66,18 L76.32,18 L78.4,7.52 L79.74,7.52 Z M80.39,3.77 C80.5300007,3.9233341 80.6,4.1133322 80.6,4.34 C80.6,4.6466682 80.4866678,4.9099989 80.26,5.13 C80.0333322,5.3500011 79.7666682,5.46 79.46,5.46 C79.2466656,5.46 79.0666674,5.3833341 78.92,5.23 C78.7733326,5.0766659 78.7,4.8866678 78.7,4.66 C78.7,4.3533318 78.8133322,4.0900011 79.04,3.87 C79.2666678,3.6499989 79.5333318,3.54 79.84,3.54 C80.0666678,3.54 80.2499993,3.6166659 80.39,3.77 Z M83.8,17.44 C83.0933298,17.039998 82.5433353,16.4800036 82.15,15.76 C81.7566647,15.0399964 81.56,14.213338 81.56,13.28 C81.56,12.1733278 81.8133308,11.1766711 82.32,10.29 C82.8266692,9.4033289 83.5166623,8.7100025 84.39,8.21 C85.2633377,7.7099975 86.233328,7.46 87.3,7.46 C88.100004,7.46 88.8266634,7.593332 89.48,7.86 C90.1333366,8.126668 90.6733312,8.4999976 91.1,8.98 L90.26,9.9 C89.4733294,9.0733292 88.4666728,8.66 87.24,8.66 C86.439996,8.66 85.70667,8.8533314 85.04,9.24 C84.37333,9.6266686 83.8500019,10.1633299 83.47,10.85 C83.0899981,11.5366701 82.9,12.313329 82.9,13.18 C82.9,14.2733388 83.2233301,15.1599966 83.87,15.84 C84.5166699,16.5200034 85.3666614,16.86 86.42,16.86 C87.1133368,16.86 87.7533304,16.7433345 88.34,16.51 C88.9266696,16.2766655 89.4333312,15.9333356 89.86,15.48 L90.56,16.28 C90.026664,16.8400028 89.393337,17.2733318 88.66,17.58 C87.926663,17.8866682 87.1200044,18.04 86.24,18.04 C85.3199954,18.04 84.5066702,17.840002 83.8,17.44 Z M95.5,14.94 C95.4466664,15.1933346 95.42,15.4399988 95.42,15.68 C95.42,16.080002 95.5099991,16.3699991 95.69,16.55 C95.8700009,16.7300009 96.1466648,16.82 96.52,16.82 C97.120003,16.7933332 97.7399968,16.5933352 98.38,16.22 L98.66,17.3 C97.859996,17.7800024 97.0533374,18.0333332 96.24,18.06 C95.5599966,18.06 95.0266686,17.8800018 94.64,17.52 C94.2533314,17.1599982 94.06,16.6333368 94.06,15.94 C94.06,15.6999988 94.093333,15.4000018 94.16,15.04 L95.4,8.86 L93.88,8.86 L94.08,7.8 L95.6,7.8 L96.14,5.12 L97.48,5.12 L96.94,7.8 L100.32,7.8 L100.12,8.86 L96.72,8.86 L95.5,14.94 Z M104.34,7.52 L102.26,18 L100.92,18 L103,7.52 L104.34,7.52 Z M104.99,3.77 C105.130001,3.9233341 105.2,4.1133322 105.2,4.34 C105.2,4.6466682 105.086668,4.9099989 104.86,5.13 C104.633332,5.3500011 104.366668,5.46 104.06,5.46 C103.846666,5.46 103.666667,5.3833341 103.52,5.23 C103.373333,5.0766659 103.3,4.8866678 103.3,4.66 C103.3,4.3533318 103.413332,4.0900011 103.64,3.87 C103.866668,3.6499989 104.133332,3.54 104.44,3.54 C104.666668,3.54 104.849999,3.6166659 104.99,3.77 Z M114.51,8.07 C115.23667,8.4766687 115.799998,9.0399964 116.2,9.76 C116.600002,10.4800036 116.8,11.306662 116.8,12.24 C116.8,13.3466722 116.543336,14.3399956 116.03,15.22 C115.516664,16.1000044 114.813338,16.7899975 113.92,17.29 C113.026662,17.7900025 112.033339,18.04 110.94,18.04 C109.993329,18.04 109.160004,17.8366687 108.44,17.43 C107.719996,17.0233313 107.160002,16.4600036 106.76,15.74 C106.359998,15.0199964 106.16,14.193338 106.16,13.26 C106.16,12.1533278 106.416664,11.1600044 106.93,10.28 C107.443336,9.3999956 108.143329,8.7100025 109.03,8.21 C109.916671,7.7099975 110.906661,7.46 112,7.46 C112.946671,7.46 113.78333,7.6633313 114.51,8.07 Z M109.66,9.23 C108.99333,9.6233353 108.470002,10.1666632 108.09,10.86 C107.709998,11.5533368 107.52,12.333329 107.52,13.2 C107.52,14.2933388 107.84333,15.1799966 108.49,15.86 C109.13667,16.5400034 109.993328,16.88 111.06,16.88 C111.873337,16.88 112.61333,16.6866686 113.28,16.3 C113.94667,15.9133314 114.469998,15.3733368 114.85,14.68 C115.230002,13.9866632 115.42,13.2000044 115.42,12.32 C115.42,11.2266612 115.09667,10.3400034 114.45,9.66 C113.80333,8.9799966 112.946672,8.64 111.88,8.64 C111.066663,8.64 110.32667,8.8366647 109.66,9.23 Z M128.51,8.29 C129.15667,8.8566695 129.48,9.6466616 129.48,10.66 C129.48,11.0066684 129.44,11.3733314 129.36,11.76 L128.12,18 L126.76,18 L127.98,11.9 C128.033334,11.633332 128.06,11.3533348 128.06,11.06 C128.06,10.2999962 127.830002,9.7100021 127.37,9.29 C126.909998,8.8699979 126.253338,8.66 125.4,8.66 C124.319995,8.6733334 123.386671,9.0166633 122.6,9.69 C121.813329,10.3633367 121.300001,11.2799942 121.06,12.44 L119.96,18 L118.62,18 L120.68,7.52 L122.04,7.52 L121.6,9.72 C122.066669,8.986663 122.656663,8.4266686 123.37,8.04 C124.083337,7.6533314 124.893329,7.4533334 125.8,7.44 C126.960006,7.44 127.86333,7.7233305 128.51,8.29 Z M133.83,17.49 C133.14333,17.0966647 132.610002,16.5466702 132.23,15.84 C131.849998,15.1333298 131.66,14.3266712 131.66,13.42 C131.66,12.3133278 131.913331,11.3033379 132.42,10.39 C132.926669,9.4766621 133.613329,8.7566693 134.48,8.23 C135.346671,7.7033307 136.306661,7.44 137.36,7.44 C138.413339,7.44 139.30333,7.6999974 140.03,8.22 C140.75667,8.7400026 141.239999,9.4599954 141.48,10.38 L142.06,7.52 L143.4,7.52 L141.32,18 L139.98,18 L140.4,15.98 C139.893331,16.64667 139.273337,17.1633315 138.54,17.53 C137.806663,17.8966685 137.020004,18.08 136.18,18.08 C135.299996,18.08 134.51667,17.8833353 133.83,17.49 Z M138.82,16.31 C139.500003,15.8899979 140.036665,15.3200036 140.43,14.6 C140.823335,13.8799964 141.02,13.0933376 141.02,12.24 C141.02,11.173328 140.693337,10.30667 140.04,9.64 C139.386663,8.97333 138.533339,8.64 137.48,8.64 C136.666663,8.64 135.920003,8.8499979 135.24,9.27 C134.559997,9.6900021 134.020002,10.2599964 133.62,10.98 C133.219998,11.7000036 133.02,12.4866624 133.02,13.34 C133.02,14.406672 133.349997,15.27333 134.01,15.94 C134.670003,16.60667 135.533328,16.94 136.6,16.94 C137.400004,16.94 138.139997,16.7300021 138.82,16.31 Z M150.04,8.09 C150.760004,7.6833313 151.566662,7.4733334 152.46,7.46 L152.3,8.76 C151.206661,8.7466666 150.250004,9.0699967 149.43,9.73 C148.609996,10.3900033 148.033335,11.2799944 147.7,12.4 L146.58,18 L145.24,18 L147.32,7.52 L148.68,7.52 L148.2,9.86 C148.706669,9.0866628 149.319996,8.4966687 150.04,8.09 Z M162.66,7.52 L155.42,19.56 C154.953331,20.3466706 154.420003,20.939998 153.82,21.34 C153.219997,21.740002 152.593337,21.94 151.94,21.94 C151.126663,21.94 150.42667,21.6866692 149.84,21.18 L150.56,20.18 C150.933335,20.4866682 151.393331,20.64 151.94,20.64 C152.833338,20.64 153.646663,20.0800056 154.38,18.96 L155.04,17.94 L152.78,7.52 L154.18,7.52 L155.96,16.54 L161.24,7.52 L162.66,7.52 Z" id="NZSL-dictionary"></path>
        </g>
    </g>
</svg>